<svg width="64" height="64" viewBox="0 0 64 64" fill="none" xmlns="http://www.w3.org/2000/svg">
<path d="M50.0818 33.882C42.3936 33.882 36.1622 40.6236 36.1622 48.9399C36.1622 57.257 42.3936 64 50.0818 64C57.7687 64 64 57.257 64 48.9399C64 40.6236 57.7687 33.882 50.0818 33.882V33.882ZM13.9189 33.8827C6.232 33.8834 0 40.6236 0 48.9406C0 57.257 6.232 63.9993 13.9189 63.9993C21.6064 63.9993 27.8385 57.257 27.8385 48.9406C27.8385 40.6236 21.6064 33.8827 13.9182 33.8827H13.9189V33.8827ZM45.9189 15.0586C45.9189 23.375 39.6876 30.1187 32.0007 30.1187C24.3125 30.1187 18.0811 23.375 18.0811 15.0586C18.0811 6.74231 24.3125 0 32.0006 0C39.6875 0 45.9183 6.74231 45.9183 15.0586H45.9189Z" fill="url(#paint0_radial_756_589)"/>
<defs>
<radialGradient id="paint0_radial_756_589" cx="0" cy="0" r="1" gradientUnits="userSpaceOnUse" gradientTransform="translate(32.0087 35.0173) scale(42.432 42.432)">
<stop stop-color="#FFB900"/>
<stop offset="0.6" stop-color="#F95D8F"/>
<stop offset="0.999" stop-color="#F95353"/>
</radialGradient>
</defs>
</svg>
