<svg viewBox="0 0 41 24" fill="none"
    xmlns="http://www.w3.org/2000/svg">
    <path d="M11.3101 8.71635C11.3101 9.21023 11.3635 9.61068 11.457 9.90434C11.5638 10.198 11.6972 10.5184 11.8841 10.8654C11.9509 10.9722 11.9776 11.079 11.9776 11.1724C11.9776 11.3059 11.8975 11.4394 11.7239 11.5729L10.883 12.1335C10.7629 12.2136 10.6427 12.2536 10.536 12.2536C10.4025 12.2536 10.269 12.1869 10.1355 12.0667C9.94863 11.8665 9.78846 11.6529 9.65497 11.4394C9.52149 11.2125 9.38801 10.9588 9.24118 10.6518C8.20003 11.8799 6.8919 12.4939 5.31682 12.4939C4.19558 12.4939 3.30125 12.1735 2.64719 11.5328C1.99313 10.8921 1.65942 10.0378 1.65942 8.96997C1.65942 7.83537 2.05987 6.91435 2.87411 6.22025C3.68834 5.52614 4.76955 5.17909 6.14441 5.17909C6.59824 5.17909 7.06543 5.21913 7.55931 5.28587C8.05319 5.35261 8.56043 5.4594 9.09435 5.57953V4.60512C9.09435 3.59066 8.88078 2.8832 8.46699 2.46941C8.03985 2.05562 7.31905 1.85539 6.29124 1.85539C5.82405 1.85539 5.34352 1.90879 4.84964 2.02892C4.35575 2.14905 3.87522 2.29588 3.40803 2.48276C3.19446 2.5762 3.03428 2.62959 2.94085 2.65628C2.84741 2.68298 2.78067 2.69633 2.72728 2.69633C2.5404 2.69633 2.44697 2.56285 2.44697 2.28254V1.62848C2.44697 1.41491 2.47366 1.25473 2.5404 1.16129C2.60714 1.06785 2.72728 0.974416 2.91415 0.880979C3.38134 0.640712 3.94196 0.440489 4.59602 0.280311C5.25008 0.106785 5.94418 0.0266963 6.67833 0.0266963C8.26677 0.0266963 9.42806 0.387097 10.1756 1.1079C10.9097 1.8287 11.2835 2.92325 11.2835 4.39155V8.71635H11.3101ZM5.89079 10.7453C6.33128 10.7453 6.78512 10.6652 7.26565 10.505C7.74619 10.3448 8.17333 10.0512 8.53373 9.65072C8.7473 9.39711 8.90748 9.1168 8.98757 8.79644C9.06766 8.47608 9.12105 8.08899 9.12105 7.63515V7.07453C8.73395 6.98109 8.32016 6.901 7.89302 6.84761C7.46588 6.79422 7.05208 6.76752 6.63829 6.76752C5.74396 6.76752 5.0899 6.94105 4.64941 7.30145C4.20892 7.66185 3.99535 8.16908 3.99535 8.83649C3.99535 9.46385 4.15553 9.93104 4.48923 10.2514C4.80959 10.5851 5.27678 10.7453 5.89079 10.7453ZM16.6094 12.1869C16.3691 12.1869 16.2089 12.1468 16.1021 12.0534C15.9954 11.9733 15.9019 11.7864 15.8218 11.5328L12.685 1.21468C12.6049 0.94772 12.5649 0.774194 12.5649 0.680756C12.5649 0.467186 12.6717 0.347052 12.8852 0.347052H14.1934C14.447 0.347052 14.6205 0.387097 14.7139 0.480534C14.8207 0.560623 14.9008 0.747497 14.9809 1.00111L17.2234 9.8376L19.3057 1.00111C19.3724 0.734149 19.4525 0.560623 19.5593 0.480534C19.6661 0.400445 19.853 0.347052 20.0932 0.347052H21.1611C21.4147 0.347052 21.5882 0.387097 21.695 0.480534C21.8018 0.560623 21.8952 0.747497 21.9486 1.00111L24.0576 9.94438L26.3669 1.00111C26.447 0.734149 26.5404 0.560623 26.6338 0.480534C26.7406 0.400445 26.9142 0.347052 27.1544 0.347052H28.3958C28.6094 0.347052 28.7295 0.453838 28.7295 0.680756C28.7295 0.747497 28.7162 0.814238 28.7028 0.894327C28.6895 0.974416 28.6628 1.0812 28.6094 1.22803L25.3925 11.5462C25.3124 11.8131 25.2189 11.9867 25.1122 12.0667C25.0054 12.1468 24.8318 12.2002 24.6049 12.2002H23.457C23.2034 12.2002 23.0298 12.1602 22.923 12.0667C22.8163 11.9733 22.7228 11.7998 22.6694 11.5328L20.6005 2.92325L18.5449 11.5195C18.4781 11.7864 18.398 11.96 18.2912 12.0534C18.1845 12.1468 17.9976 12.1869 17.7573 12.1869H16.6094ZM33.7618 12.5473C33.0677 12.5473 32.3736 12.4672 31.7061 12.307C31.0387 12.1468 30.5182 11.9733 30.1711 11.7731C29.9575 11.6529 29.8107 11.5195 29.7573 11.3993C29.7039 11.2792 29.6772 11.1457 29.6772 11.0256V10.3448C29.6772 10.0645 29.784 9.93104 29.9842 9.93104C30.0643 9.93104 30.1444 9.94438 30.2245 9.97108C30.3046 9.99778 30.4247 10.0512 30.5582 10.1046C31.012 10.3048 31.5059 10.465 32.0265 10.5717C32.5604 10.6785 33.081 10.7319 33.6149 10.7319C34.4559 10.7319 35.1099 10.5851 35.5638 10.2914C36.0176 9.99778 36.2579 9.57063 36.2579 9.02336C36.2579 8.64961 36.1377 8.3426 35.8975 8.08899C35.6572 7.83537 35.2034 7.60845 34.5493 7.39488L32.6138 6.79422C31.6394 6.48721 30.9186 6.03337 30.4781 5.4327C30.0376 4.84538 29.8107 4.19132 29.8107 3.49722C29.8107 2.9366 29.9308 2.44271 30.1711 2.01557C30.4114 1.58843 30.7317 1.21468 31.1322 0.921023C31.5326 0.614016 31.9865 0.387097 32.5204 0.226919C33.0543 0.0667408 33.6149 0 34.2022 0C34.4959 0 34.8029 0.0133482 35.0966 0.0533927C35.4036 0.0934372 35.6839 0.14683 35.9642 0.200222C36.2312 0.266963 36.4848 0.333704 36.7251 0.413793C36.9653 0.493882 37.1522 0.573971 37.2857 0.65406C37.4725 0.760845 37.606 0.867631 37.6861 0.987764C37.7662 1.09455 37.8063 1.24138 37.8063 1.42825V2.05562C37.8063 2.33593 37.6995 2.48276 37.4992 2.48276C37.3925 2.48276 37.2189 2.42937 36.992 2.32258C36.2312 1.97553 35.3769 1.802 34.4292 1.802C33.6683 1.802 33.0677 1.92214 32.6539 2.17575C32.2401 2.42937 32.0265 2.81646 32.0265 3.36374C32.0265 3.73749 32.16 4.05784 32.4269 4.31146C32.6939 4.56507 33.1878 4.81869 33.8952 5.04561L35.7907 5.64627C36.7517 5.95328 37.4459 6.38042 37.8596 6.9277C38.2734 7.47497 38.4737 8.10234 38.4737 8.79644C38.4737 9.37041 38.3535 9.89099 38.1266 10.3448C37.8863 10.7987 37.566 11.1991 37.1522 11.5195C36.7384 11.8532 36.2445 12.0934 35.6705 12.267C35.0699 12.4538 34.4425 12.5473 33.7618 12.5473Z" fill="#252F3E"/>
    <path fill-rule="evenodd" clip-rule="evenodd" d="M36.2846 19.0345C31.893 22.2781 25.5126 24 20.0265 24C12.338 24 5.41028 21.1568 0.1778 16.4316C-0.235993 16.0578 0.137755 15.5506 0.631638 15.8443C6.29126 19.1279 13.2724 21.1168 20.4937 21.1168C25.3658 21.1168 30.7184 20.1023 35.6439 18.02C36.378 17.6863 37.0054 18.5005 36.2846 19.0345Z" fill="#FF9900"/>
    <path fill-rule="evenodd" clip-rule="evenodd" d="M38.1133 16.9522C37.5527 16.2314 34.4025 16.6051 32.9742 16.7786C32.5471 16.832 32.4804 16.4583 32.8675 16.178C35.3769 14.416 39.5015 14.9232 39.982 15.5106C40.4626 16.1112 39.8486 20.2358 37.4993 22.2113C37.1389 22.5183 36.7918 22.3582 36.952 21.9577C37.4859 20.6363 38.6739 17.6596 38.1133 16.9522Z" fill="#FF9900"/>
</svg>
