<svg viewBox="0 0 24 12" fill="none" xmlns="http://www.w3.org/2000/svg">
<path d="M6.72528 6.52246C6.75518 6.31102 6.60845 6.12196 6.40728 6.09487C6.20612 6.06777 6.01668 6.18078 5.78615 6.47293L5.50279 6.80414C5.18207 7.17649 4.55078 7.73788 3.99155 8.12428C3.44779 8.51276 2.967 8.67887 2.54919 8.6226C2.03854 8.55382 1.74242 8.083 1.8257 7.49399C1.99225 6.31595 3.20951 4.5099 4.81947 3.04915C6.05109 1.92222 7.28002 1.1489 7.72877 1.20934C7.89899 1.23227 8.03238 1.40414 8.00462 1.60048C7.93202 2.11398 7.29699 2.81337 6.51044 3.24611C6.01257 3.53304 5.8829 3.66948 5.83806 3.98665C5.78467 4.36422 6.03811 4.69078 6.42497 4.74288C6.76541 4.78873 7.15335 4.61012 7.66136 4.13987C8.47728 3.38788 9.05576 2.41923 9.17534 1.57346C9.29278 0.742797 8.84353 0.128231 8.02339 0.0177748C6.95566 -0.126027 5.51223 0.603007 3.72617 2.19394C1.74427 3.94318 0.503004 5.80757 0.289473 7.31787C0.103701 8.63183 0.79572 9.64847 1.98724 9.80894C2.9776 9.94232 4.21878 9.41691 5.325 8.39621C6.05074 7.72442 6.66976 6.91514 6.72528 6.52246Z" fill="#343D46"/>
<path d="M8.66225 6.29083C8.82235 6.05075 8.86397 5.97941 9.15161 5.61799L9.22632 5.53571C10.0139 5.31858 11.0764 4.83065 11.8053 4.35938C12.7786 3.72093 13.38 2.92467 13.4911 2.13931C13.5658 1.61071 13.2787 1.18728 12.799 1.12268C11.8242 0.991379 10.123 2.31671 8.4041 4.54771C7.78294 5.3721 6.86613 6.72612 6.26576 7.73799C5.79241 8.52072 5.57148 8.96807 5.52663 9.28524C5.48606 9.57219 5.70162 9.83208 6.01111 9.87377C6.28965 9.91128 6.51644 9.75714 6.83449 9.29208L7.17229 8.79891C7.84575 7.82766 8.66007 7.19858 9.51384 6.95958C8.85588 7.48659 8.31636 8.29119 8.23308 8.88021C8.15408 9.43902 8.53877 9.95255 9.11132 10.0297C9.71482 10.1109 10.5835 9.76622 11.4 9.12204C12.0382 8.62316 12.4379 8.13832 12.4849 7.80605C12.519 7.5644 12.3878 7.37743 12.1866 7.35034C12.0164 7.32741 11.8819 7.38625 11.6487 7.58571C11.2133 7.98878 10.9273 8.22729 10.7314 8.3856C10.4716 8.55068 10.1717 8.66419 9.98598 8.63918C9.84671 8.62043 9.76881 8.5022 9.78803 8.36627C9.81365 8.18504 10.0837 7.83664 10.517 7.44867L10.8996 7.08466C11.4407 6.60347 11.5592 6.43474 11.5933 6.19309C11.6446 5.83062 11.4066 5.50615 11.0507 5.45821C10.6174 5.39986 9.97122 5.62064 8.76364 6.24292L8.66225 6.29083ZM10.1874 4.20304C10.2248 4.1619 10.26 4.13586 10.2621 4.12076L10.6245 3.67706C10.855 3.38491 11.3102 2.95371 11.5941 2.73031C11.7526 2.61314 11.8849 2.5694 11.9777 2.5819C12.0396 2.59024 12.093 2.65899 12.0845 2.7194C12.0567 2.91574 11.7381 3.27299 11.3486 3.57451C10.9788 3.8479 10.6196 4.04579 10.1874 4.20304Z" fill="#343D46"/>
<path d="M13.7492 7.94555C13.5646 8.13615 13.4792 8.29395 13.4514 8.49029C13.4002 8.85276 13.7043 9.15536 14.1531 9.2158C14.5864 9.27415 15.0917 9.15752 15.6338 8.89195C16.1936 8.61335 16.5431 8.26027 16.588 7.94311C16.6179 7.73167 16.4733 7.52751 16.2566 7.49833C16.1328 7.48166 16.0336 7.51446 15.723 7.70349C15.3287 7.92741 15.009 8.06905 14.8698 8.05029C14.7924 8.03987 14.7236 7.96904 14.7321 7.90863C14.7492 7.78781 15.0155 7.57742 15.4077 7.3686C15.8132 7.17697 15.9605 7.02751 15.9947 6.78586C16.0288 6.54422 15.8309 6.27131 15.5833 6.23796C15.3667 6.20878 15.0999 6.31137 14.4697 6.64204C13.7866 7.01176 13.2845 7.3289 12.6399 7.8731L12.5145 7.97933C12.6788 7.70905 13.0172 7.32368 13.3405 7.04403C13.7541 6.68418 13.8133 6.59981 13.8411 6.40347C13.8753 6.16183 13.673 5.91912 13.379 5.87953C13.1469 5.84827 12.9484 5.91387 12.6997 6.11124C12.418 6.31954 11.9916 6.77001 11.6447 7.21579C10.8411 8.21568 10.0438 9.61658 9.96906 10.1452C9.92421 10.4623 10.1264 10.705 10.4514 10.7488C10.7299 10.7863 10.9172 10.6884 11.1323 10.3942L11.571 9.7453C12.047 9.05527 12.8853 8.36787 13.7492 7.94555Z" fill="#343D46"/>
<path d="M18.5597 8.9628C18.5762 8.73417 18.4583 8.56438 18.2572 8.53729C18.056 8.5102 17.9215 8.56904 17.5234 8.93097C17.3452 9.07626 17.0304 9.2955 16.8233 9.42152C16.5634 9.5866 16.4156 9.62825 16.2764 9.6095C16.1216 9.58866 16.0437 9.47043 16.0651 9.3194C16.1056 9.03244 16.5272 8.50438 17.2706 7.81957C17.5278 7.56179 17.6244 7.43629 17.6543 7.22485C17.6991 6.90768 17.5012 6.63477 17.1917 6.59309C16.8512 6.54724 16.5055 6.76231 15.9649 7.3513C15.1607 8.24338 14.7071 8.99799 14.6153 9.64742C14.5213 10.312 14.906 10.8255 15.525 10.9088C16.0975 10.986 16.8958 10.6933 17.6418 10.1012C18.1039 9.73251 18.5431 9.19143 18.5597 8.9628ZM20.3128 4.25854C20.3598 3.92627 20.1619 3.65336 19.8369 3.60959C19.2798 3.53457 18.5733 4.07043 18.4922 4.64434C18.4495 4.9464 18.6805 5.20838 19.0055 5.25214C19.5625 5.32717 20.2338 4.81735 20.3128 4.25854Z" fill="#343D46"/>
<path d="M23.2198 7.0048C23.3266 6.24965 22.8202 5.70435 21.9227 5.58347C21.3192 5.50219 20.721 5.60632 20.0839 5.87449C19.244 6.23848 18.8133 6.71915 18.7151 7.41389C18.6468 7.89719 18.7412 8.23311 19.1531 8.88881C19.5741 9.59191 19.6098 9.67368 19.5821 9.87002C19.5458 10.1268 19.2704 10.2898 18.9454 10.246C18.605 10.2002 18.3564 9.95119 18.2993 9.57413C18.2833 9.46424 18.263 9.38456 18.2652 9.36946L18.3794 8.78461C18.4183 8.62056 18.2119 8.40806 18.0107 8.38097C17.5774 8.32262 17.1841 8.76215 17.0923 9.41158C16.945 10.4537 17.6583 11.3193 18.757 11.4673C19.7938 11.6069 20.7474 10.9966 20.8691 10.1357C20.9289 9.71282 20.7987 9.29513 20.4268 8.69098C20.0528 8.10194 19.961 7.85872 20.0037 7.55666C20.0721 7.07337 20.8255 6.65156 21.4755 6.7391C21.6766 6.76619 21.8143 6.90785 21.7929 7.05888C21.7716 7.20991 21.5891 7.38541 21.373 7.46404L21.0576 7.57547C20.857 7.65618 20.7273 7.79263 20.6995 7.98896C20.6568 8.29102 20.8879 8.553 21.2128 8.59676C22.002 8.70305 23.1023 7.83547 23.2198 7.0048Z" fill="#343D46"/>
</svg>
