<svg viewBox="0 0 66 80" fill="none"
    xmlns="http://www.w3.org/2000/svg">
    <path d="M15.7821 14.2234C15.507 14.3343 15.1775 14.6234 14.999 14.9009C14.7102 15.3449 14.6832 15.5226 14.6832 17.122V18.8764L13.144 18.9209C11.7977 18.9543 11.4951 18.9984 10.8905 19.2541C10.0661 19.5984 9.39258 20.1867 9.00792 20.8864C8.76046 21.3193 8.7191 21.697 8.66462 23.3627L8.60948 25.3282L10.1625 25.3616L11.715 25.395L14.147 43.4958C17.1152 65.5503 16.7989 63.4511 17.2249 64.162C17.6784 64.9174 18.6401 65.6054 19.5335 65.8166C20.5778 66.0611 45.0639 66.0611 46.1082 65.8166C47.0016 65.6054 47.9633 64.9169 48.4306 64.1509C48.7739 63.5625 48.8842 62.8183 51.3575 44.4729L53.9267 25.3945L55.4798 25.361L57.0322 25.3276L56.9771 23.3622C56.9219 21.6964 56.8806 21.3187 56.6338 20.8858C56.2215 20.1416 55.5205 19.5644 54.6002 19.209C53.8585 18.9315 53.6248 18.8981 52.3743 18.8981H50.9591V17.1438C50.9591 15.5226 50.9315 15.3449 50.6434 14.9004C50.4648 14.6229 50.1347 14.3338 49.8603 14.2229C49.4067 14.0229 48.6925 14.0118 32.8218 14.0118C16.9511 14.0118 16.235 14.0235 15.7821 14.2234ZM48.8973 17.2881V18.8981H32.8205H16.7437V17.2881V15.678H32.8205H48.8973V17.2881ZM53.9267 20.7421C54.7374 21.2195 54.8746 21.4975 54.9159 22.6853L54.9711 23.7844H32.8343H10.6975V22.8407C10.6975 21.4635 11.1649 20.7638 12.2368 20.5644C12.4843 20.5087 21.8828 20.4869 33.1231 20.4869C53.5283 20.5087 53.5559 20.5087 53.9267 20.7421ZM51.8518 25.8056C51.7553 26.3828 51.2335 30.0256 51.2335 30.1365C51.2335 30.1922 42.9338 30.2251 32.7792 30.2251H14.3117L14.078 28.1928C13.9408 27.0825 13.803 25.9828 13.7616 25.7499L13.6796 25.3388H32.8067H51.9339L51.8518 25.8056ZM50.9447 32.1911C50.9447 32.3688 50.3677 36.722 49.6804 41.8857L48.4162 51.2695H32.8205H17.2249L17.0601 50.0478C16.9643 49.3704 16.3597 45.0395 15.7138 40.4089C15.0679 35.7671 14.5461 31.9582 14.5461 31.9359C14.5461 31.9136 22.7354 31.8914 32.7529 31.8914H50.9598L50.9447 32.1911ZM48.1556 53.4016C48.1142 53.6345 47.7985 55.9447 47.4414 58.5319C46.7817 63.596 46.7541 63.6957 45.9297 64.1063C45.5175 64.3063 45.1052 64.3174 32.8067 64.3174C20.4537 64.3174 20.0967 64.3063 19.6707 64.0952C19.4232 63.9843 19.135 63.7397 19.0247 63.562C18.8876 63.3509 18.5987 61.6077 18.1865 58.5314C17.8432 55.9437 17.5268 53.6339 17.4855 53.401L17.4028 52.9899H32.8205H48.2376L48.1556 53.4016Z" />
    <path d="M49.5 15.0101H16V19.556H49.5V15.0101Z" />
    <path d="M10.5 20.0611L10 24.1019H56L54.5 20.0611H10.5Z" />
    <path d="M27.4658 42.5225C27.4957 42.311 27.3489 42.122 27.1478 42.0949C26.9466 42.0678 26.7572 42.1808 26.5266 42.4729L26.2433 42.8041C25.9225 43.1765 25.2913 43.7379 24.732 44.1243C24.1883 44.5128 23.7075 44.6789 23.2897 44.6226C22.779 44.5538 22.4829 44.083 22.5662 43.494C22.7327 42.316 23.95 40.5099 25.5599 39.0492C26.7916 37.9222 28.0205 37.1489 28.4693 37.2093C28.6395 37.2323 28.7729 37.4041 28.7451 37.6005C28.6725 38.114 28.0375 38.8134 27.2509 39.2461C26.753 39.533 26.6234 39.6695 26.5785 39.9866C26.5252 40.3642 26.7786 40.6908 27.1655 40.7429C27.5059 40.7887 27.8938 40.6101 28.4018 40.1399C29.2178 39.3879 29.7962 38.4192 29.9158 37.5735C30.0333 36.7428 29.584 36.1282 28.7639 36.0178C27.6961 35.874 26.2527 36.603 24.4667 38.1939C22.4848 39.9432 21.2435 41.8076 21.03 43.3179C20.8442 44.6318 21.5362 45.6485 22.7277 45.8089C23.7181 45.9423 24.9593 45.4169 26.0655 44.3962C26.7912 43.7244 27.4102 42.9151 27.4658 42.5225Z" />
    <path d="M29.4027 42.2908C29.5628 42.0508 29.6045 41.9794 29.8921 41.618L29.9668 41.5357C30.7544 41.3186 31.8168 40.8307 32.5458 40.3594C33.5191 39.7209 34.1205 38.9247 34.2315 38.1393C34.3063 37.6107 34.0192 37.1873 33.5395 37.1227C32.5646 36.9914 30.8634 38.3167 29.1446 40.5477C28.5234 41.3721 27.6066 42.7261 27.0062 43.738C26.5329 44.5207 26.312 44.9681 26.2671 45.2852C26.2265 45.5722 26.4421 45.8321 26.7516 45.8738C27.0301 45.9113 27.2569 45.7571 27.575 45.2921L27.9128 44.7989C28.5862 43.8277 29.4005 43.1986 30.2543 42.9596C29.5964 43.4866 29.0568 44.2912 28.9736 44.8802C28.8946 45.439 29.2792 45.9526 29.8518 46.0297C30.4553 46.1109 31.324 45.7662 32.1405 45.122C32.7787 44.6232 33.1784 44.1383 33.2254 43.8061C33.2595 43.5644 33.1283 43.3774 32.9271 43.3503C32.7569 43.3274 32.6224 43.3863 32.3892 43.5857C31.9538 43.9888 31.6678 44.2273 31.4719 44.3856C31.212 44.5507 30.9121 44.6642 30.7265 44.6392C30.5872 44.6204 30.5093 44.5022 30.5285 44.3663C30.5541 44.185 30.8242 43.8366 31.2575 43.4487L31.6401 43.0847C32.1812 42.6035 32.2996 42.4347 32.3338 42.1931C32.3851 41.8306 32.1471 41.5061 31.7912 41.4582C31.3579 41.3999 30.7117 41.6206 29.5041 42.2429L29.4027 42.2908ZM30.9279 40.203C30.9652 40.1619 31.0005 40.1359 31.0026 40.1208L31.3649 39.6771C31.5955 39.3849 32.0507 38.9537 32.3346 38.7303C32.493 38.6131 32.6254 38.5694 32.7182 38.5819C32.7801 38.5902 32.8335 38.659 32.8249 38.7194C32.7972 38.9157 32.4786 39.273 32.089 39.5745C31.7192 39.8479 31.3601 40.0458 30.9279 40.203Z" />
    <path d="M34.4897 43.9456C34.3051 44.1362 34.2197 44.2939 34.1919 44.4903C34.1407 44.8528 34.4448 45.1554 34.8936 45.2158C35.3268 45.2742 35.8322 45.1575 36.3743 44.8919C36.9341 44.6134 37.2836 44.2603 37.3285 43.9431C37.3583 43.7317 37.2138 43.5275 36.9971 43.4983C36.8733 43.4817 36.7741 43.5145 36.4635 43.7035C36.0692 43.9274 35.7495 44.0691 35.6103 44.0503C35.5329 44.0399 35.4641 43.969 35.4726 43.9086C35.4897 43.7878 35.756 43.5774 36.1482 43.3686C36.5537 43.177 36.701 43.0275 36.7352 42.7859C36.7693 42.5442 36.5714 42.2713 36.3238 42.238C36.1071 42.2088 35.8403 42.3114 35.2101 42.642C34.5271 43.0118 34.025 43.3289 33.3803 43.8731L33.2549 43.9793C33.4193 43.709 33.7576 43.3237 34.081 43.044C34.4946 42.6842 34.5538 42.5998 34.5816 42.4035C34.6157 42.1618 34.4135 41.9191 34.1195 41.8795C33.8874 41.8483 33.6889 41.9139 33.4402 42.1112C33.1585 42.3195 32.7321 42.77 32.3852 43.2158C31.5816 44.2157 30.7843 45.6166 30.7095 46.1452C30.6647 46.4623 30.8669 46.705 31.1919 46.7488C31.4704 46.7863 31.6577 46.6884 31.8728 46.3942L32.3114 45.7453C32.7874 45.0553 33.6258 44.3679 34.4897 43.9456Z" />
    <path d="M39.3002 44.9628C39.3167 44.7342 39.1988 44.5644 38.9976 44.5373C38.7965 44.5102 38.662 44.569 38.2639 44.931C38.0857 45.0763 37.7708 45.2955 37.5638 45.4215C37.3039 45.5866 37.1561 45.6283 37.0168 45.6095C36.8621 45.5887 36.7842 45.4704 36.8056 45.3194C36.8461 45.0324 37.2677 44.5044 38.011 43.8196C38.2683 43.5618 38.3649 43.4363 38.3947 43.2248C38.4396 42.9077 38.2416 42.6348 37.9321 42.5931C37.5917 42.5472 37.2459 42.7623 36.7054 43.3513C35.9012 44.2434 35.4476 44.998 35.3557 45.6474C35.2618 46.312 35.6465 46.8255 36.2655 46.9088C36.838 46.986 37.6363 46.6933 38.3823 46.1012C38.8444 45.7325 39.2836 45.1914 39.3002 44.9628ZM41.0533 40.2585C41.1003 39.9263 40.9024 39.6534 40.5774 39.6096C40.0203 39.5346 39.3138 40.0704 39.2327 40.6443C39.1899 40.9464 39.421 41.2084 39.7459 41.2521C40.303 41.3272 40.9743 40.8173 41.0533 40.2585Z" />
    <path d="M43.9603 43.0048C44.067 42.2497 43.5607 41.7043 42.6632 41.5835C42.0597 41.5022 41.4615 41.6063 40.8244 41.8745C39.9845 42.2385 39.5538 42.7192 39.4556 43.4139C39.3873 43.8972 39.4817 44.2331 39.8936 44.8888C40.3145 45.5919 40.3503 45.6737 40.3225 45.87C40.2862 46.1268 40.0109 46.2898 39.6859 46.246C39.3455 46.2002 39.0969 45.9512 39.0398 45.5741C39.0238 45.4642 39.0035 45.3846 39.0056 45.3695L39.1199 44.7846C39.1588 44.6206 38.9523 44.4081 38.7512 44.381C38.3179 44.3226 37.9246 44.7621 37.8328 45.4116C37.6854 46.4537 38.3988 47.3193 39.4975 47.4673C40.5343 47.6069 41.4879 46.9966 41.6096 46.1357C41.6694 45.7128 41.5392 45.2951 41.1673 44.691C40.7933 44.1019 40.7015 43.8587 40.7442 43.5567C40.8126 43.0734 41.566 42.6516 42.2159 42.7391C42.4171 42.7662 42.5548 42.9079 42.5334 43.0589C42.5121 43.2099 42.3296 43.3854 42.1134 43.464L41.7981 43.5755C41.5974 43.6562 41.4678 43.7926 41.44 43.989C41.3973 44.291 41.6283 44.553 41.9533 44.5968C42.7425 44.7031 43.8428 43.8355 43.9603 43.0048Z" />
    <path d="M29.5016 0.16244C29.2474 0.349714 29.0824 0.794949 29.127 1.15389C29.1461 1.29435 29.292 1.63003 29.4446 1.89564C29.9145 2.70747 30.0795 3.17596 30.1114 3.80847C30.1432 4.40946 30.1179 4.48749 29.5334 5.65857C28.727 7.26692 28.835 8.98421 29.8572 10.8423C30.1749 11.4123 30.3526 11.5605 30.7272 11.5605C30.9684 11.5605 31.0575 11.5136 31.2541 11.2952C31.4702 11.0451 31.4891 10.9907 31.4891 10.6082C31.4891 10.2569 31.4572 10.1397 31.2541 9.79635C30.778 9.00012 30.5492 8.09435 30.6572 7.40738C30.6764 7.25897 30.8668 6.80639 31.0764 6.40032C31.5526 5.47925 31.7051 4.9872 31.7494 4.23014C31.8194 3.12945 31.5145 2.01284 30.8223 0.802905C30.3715 0.0143341 29.9653 -0.180895 29.5016 0.16244Z" />
    <path d="M33.2546 0.162441C33.1403 0.240472 33.0069 0.420096 32.9496 0.544945C32.7719 0.966618 32.8227 1.24753 33.1973 1.90329C33.6227 2.6527 33.8134 3.19157 33.8514 3.76135C33.896 4.32348 33.8196 4.59674 33.3688 5.45538C32.8735 6.41562 32.7592 6.86055 32.7592 7.89117C32.7657 8.5705 32.7911 8.80459 32.9307 9.28073C33.1338 9.97566 33.5403 10.8267 33.8641 11.248C34.0799 11.5289 34.1372 11.5605 34.4229 11.5605C34.7786 11.5605 35.0136 11.3888 35.1721 11.0139C35.3309 10.6391 35.2864 10.3814 34.9499 9.72566C34.5372 8.92148 34.3784 8.39057 34.3784 7.82844C34.3784 7.32108 34.4799 7.00866 34.9118 6.18887C35.7944 4.51044 35.6866 2.82406 34.5688 0.82555C34.1118 0.0219848 33.7118 -0.180895 33.2546 0.162441Z" />
</svg>
