<svg width="54" height="64" viewBox="0 0 54 64" fill="none"
    xmlns="http://www.w3.org/2000/svg">
    <path d="M53 10.5H1V8C1 6.89543 1.89543 6 3 6H7.70968V2C7.70968 1.44772 8.15739 1 8.70968 1H45.2903C45.8426 1 46.2903 1.44772 46.2903 2V6H51C52.1046 6 53 6.89543 53 8V10.5Z" stroke-width="0"/>
    <path d="M7.70968 6H3C1.89543 6 1 6.89543 1 8V10.5H53V8C53 6.89543 52.1046 6 51 6H46.2903M7.70968 6V2C7.70968 1.44772 8.15739 1 8.70968 1H45.2903C45.8426 1 46.2903 1.44772 46.2903 2V6M7.70968 6H46.2903" stroke-width="2" fill="none" />
    <path d="M50.1321 18.8457L51.1064 11.6339C51.1874 11.0338 50.7208 10.5 50.1154 10.5H4.42946C3.8151 10.5 3.34601 11.0488 3.44165 11.6557L4.57479 18.8457M50.1321 18.8457H4.57479M50.1321 18.8457L46.4899 45.8086M4.57479 18.8457L8.82411 45.8086M46.4899 45.8086L44.3521 61.6339C44.2851 62.1299 43.8617 62.5 43.3611 62.5H12.3094C11.8172 62.5 11.3982 62.1419 11.3216 61.6557L8.82411 45.8086M46.4899 45.8086H8.82411" fill="none" stroke-width="2"/>
    <path d="M20.8801 32.6751C20.9166 32.4263 20.7378 32.2039 20.4926 32.172C20.2474 32.1401 20.0165 32.2731 19.7356 32.6169L19.3902 33.0066C18.9994 33.4448 18.23 34.1053 17.5484 34.56C16.8857 35.0172 16.2997 35.2126 15.7905 35.1464C15.1682 35.0655 14.8073 34.5115 14.9088 33.8184C15.1118 32.4321 16.5953 30.3069 18.5574 28.588C20.0585 27.2619 21.5562 26.3519 22.1031 26.4231C22.3106 26.45 22.4732 26.6523 22.4393 26.8833C22.3509 27.4876 21.5769 28.3106 20.6183 28.8198C20.0115 29.1574 19.8535 29.318 19.7988 29.6912C19.7338 30.1355 20.0427 30.5197 20.5141 30.5811C20.929 30.635 21.4018 30.4248 22.021 29.8715C23.0154 28.9866 23.7204 27.8468 23.8662 26.8515C24.0093 25.8741 23.4618 25.1509 22.4622 25.0209C21.1609 24.8517 19.4017 25.7096 17.225 27.5817C14.8095 29.64 13.2967 31.8339 13.0365 33.6111C12.8101 35.1573 13.6535 36.3536 15.1057 36.5424C16.3127 36.6994 17.8254 36.0811 19.1736 34.88C20.058 34.0895 20.8125 33.1372 20.8801 32.6751Z" stroke-width="0"/>
    <path d="M23.2408 32.4026C23.4359 32.1201 23.4867 32.0361 23.8372 31.6108L23.9283 31.514C24.8882 31.2585 26.183 30.6843 27.0714 30.1298C28.2576 29.3785 28.9906 28.4415 29.1259 27.5174C29.217 26.8954 28.8672 26.3971 28.2825 26.3211C27.0944 26.1666 25.0211 27.7261 22.9262 30.3514C22.1692 31.3215 21.0518 32.9148 20.3201 34.1055C19.7432 35.0265 19.4739 35.5529 19.4193 35.9262C19.3698 36.2638 19.6326 36.5697 20.0097 36.6187C20.3492 36.6628 20.6256 36.4815 21.0132 35.9342L21.4249 35.3539C22.2457 34.211 23.2382 33.4707 24.2787 33.1895C23.4768 33.8097 22.8193 34.7564 22.7178 35.4496C22.6215 36.1071 23.0903 36.7114 23.7881 36.8021C24.5236 36.8978 25.5824 36.4922 26.5774 35.7341C27.3553 35.1471 27.8424 34.5766 27.8997 34.1856C27.9413 33.9012 27.7813 33.6812 27.5362 33.6493C27.3287 33.6223 27.1648 33.6916 26.8806 33.9263C26.3499 34.4006 26.0013 34.6812 25.7626 34.8675C25.4459 35.0618 25.0804 35.1954 24.8541 35.1659C24.6844 35.1439 24.5894 35.0047 24.6129 34.8448C24.6441 34.6315 24.9732 34.2216 25.5013 33.765L25.9676 33.3367C26.6271 32.7705 26.7714 32.5719 26.8131 32.2876C26.8755 31.861 26.5855 31.4792 26.1518 31.4228C25.6237 31.3541 24.8361 31.6139 23.3644 32.3462L23.2408 32.4026ZM25.0996 29.9458C25.1451 29.8974 25.1881 29.8668 25.1907 29.849L25.6323 29.3269C25.9132 28.9831 26.468 28.4757 26.814 28.2128C27.0071 28.0749 27.1684 28.0235 27.2816 28.0382C27.357 28.048 27.422 28.1289 27.4116 28.2C27.3778 28.431 26.9895 28.8514 26.5148 29.2062C26.0641 29.5279 25.6264 29.7608 25.0996 29.9458Z" stroke-width="0"/>
    <path d="M29.4406 34.3497C29.2155 34.574 29.1115 34.7597 29.0776 34.9907C29.0152 35.4173 29.3859 35.7733 29.9328 35.8445C30.4608 35.9131 31.0767 35.7759 31.7375 35.4634C32.4197 35.1355 32.8457 34.7201 32.9003 34.3468C32.9367 34.098 32.7605 33.8578 32.4965 33.8235C32.3456 33.8038 32.2246 33.8424 31.8461 34.0649C31.3655 34.3284 30.976 34.495 30.8062 34.473C30.7119 34.4607 30.6281 34.3774 30.6385 34.3063C30.6593 34.1641 30.9838 33.9165 31.4618 33.6708C31.9561 33.4453 32.1356 33.2694 32.1772 32.9851C32.2189 32.7007 31.9776 32.3796 31.6759 32.3404C31.4118 32.306 31.0867 32.4267 30.3186 32.8158C29.4862 33.2509 28.8742 33.6241 28.0885 34.2645L27.9357 34.3895C28.136 34.0714 28.5484 33.6179 28.9425 33.2889C29.4465 32.8654 29.5187 32.7662 29.5525 32.5351C29.5942 32.2508 29.3477 31.9652 28.9894 31.9186C28.7065 31.8818 28.4646 31.959 28.1615 32.1912C27.8181 32.4364 27.2985 32.9664 26.8757 33.491C25.8963 34.6676 24.9246 36.3161 24.8335 36.9381C24.7788 37.3113 25.0253 37.5969 25.4213 37.6484C25.7608 37.6925 25.9891 37.5773 26.2512 37.2311L26.7858 36.4675C27.3659 35.6556 28.3877 34.8467 29.4406 34.3497Z" stroke-width="0"/>
    <path d="M35.3033 35.5467C35.3235 35.2777 35.1798 35.0779 34.9346 35.046C34.6894 35.0142 34.5256 35.0834 34.0404 35.5093C33.8232 35.6803 33.4395 35.9382 33.1871 36.0865C32.8704 36.2808 32.6903 36.3298 32.5205 36.3077C32.3319 36.2832 32.237 36.1441 32.263 35.9664C32.3125 35.6287 32.8263 35.0073 33.7322 34.2015C34.0457 33.8981 34.1634 33.7505 34.1998 33.5016C34.2545 33.1284 34.0132 32.8073 33.6361 32.7582C33.2212 32.7043 32.7997 32.9574 32.1409 33.6505C31.1608 34.7002 30.608 35.5882 30.4961 36.3524C30.3816 37.1343 30.8504 37.7386 31.6048 37.8367C32.3026 37.9274 33.2755 37.5831 34.1847 36.8863C34.7479 36.4525 35.2831 35.8158 35.3033 35.5467ZM37.44 30.0111C37.4972 29.6201 37.256 29.299 36.8599 29.2475C36.181 29.1592 35.3199 29.7898 35.221 30.4651C35.169 30.8205 35.4506 31.1288 35.8466 31.1803C36.5256 31.2686 37.3437 30.6687 37.44 30.0111Z" stroke-width="0"/>
    <path d="M40.9828 33.2427C41.1129 32.3541 40.4958 31.7124 39.402 31.5702C38.6665 31.4746 37.9375 31.5971 37.1609 31.9127C36.1373 32.341 35.6125 32.9066 35.4927 33.7241C35.4095 34.2928 35.5245 34.6881 36.0265 35.4597C36.5396 36.287 36.5832 36.3833 36.5493 36.6143C36.5051 36.9164 36.1695 37.1082 35.7735 37.0567C35.3586 37.0028 35.0555 36.7098 34.986 36.2661C34.9665 36.1368 34.9418 36.043 34.9444 36.0253L35.0836 35.3371C35.1311 35.144 34.8794 34.894 34.6342 34.8621C34.1062 34.7934 33.6269 35.3106 33.515 36.0748C33.3354 37.3011 34.2048 38.3197 35.5438 38.4938C36.8074 38.6581 37.9696 37.9399 38.1179 36.9269C38.1908 36.4293 38.0321 35.9378 37.5789 35.2269C37.1231 34.5337 37.0112 34.2475 37.0633 33.8921C37.1465 33.3234 38.0648 32.8271 38.8569 32.9301C39.1021 32.9619 39.2699 33.1286 39.2438 33.3064C39.2178 33.4841 38.9954 33.6906 38.732 33.7831L38.3477 33.9142C38.1031 34.0092 37.9451 34.1698 37.9113 34.4008C37.8592 34.7562 38.1408 35.0645 38.5368 35.116C39.4987 35.2411 40.8397 34.2202 40.9828 33.2427Z" stroke-width="0"/>
</svg>
