<svg  viewBox="0 0 69 69" fill="none" xmlns="http://www.w3.org/2000/svg">
<g clip-path="url(#clip0_756_2214)">
<path d="M63.4924 28.3714H61.7509C60.1828 28.3714 58.783 27.38 58.2632 25.9002C57.9458 24.9949 57.5778 24.1125 57.1637 23.2579C56.4756 21.8427 56.7601 20.1436 57.8733 19.0304L59.0758 17.8279C61.1117 15.792 61.111 12.4951 59.0765 10.4602L58.2095 9.59256C56.1753 7.55868 52.8763 7.55731 50.8438 9.59256L49.613 10.8224C48.5046 11.9312 46.8147 12.2202 45.3999 11.5423C44.5449 11.1309 43.6618 10.768 42.7552 10.4537C41.2665 9.939 40.2671 8.53613 40.2671 6.96224V5.25942C40.2671 2.38252 37.934 0.050415 35.0568 0.050415H33.8307C30.9528 0.050415 28.621 2.38252 28.621 5.25942V6.99986C28.621 8.56861 27.6296 9.96809 26.1487 10.4879C25.2441 10.8053 24.3635 11.1729 23.5095 11.5874C22.0936 12.2755 20.3956 11.9903 19.282 10.8764L18.0782 9.67396C16.0433 7.63872 12.7457 7.63941 10.7112 9.67396L9.84317 10.5416C7.80964 12.5762 7.80861 15.8737 9.84317 17.909L11.0723 19.1371C12.1814 20.2469 12.4704 21.9367 11.7916 23.3502C11.3812 24.2062 11.0179 25.0893 10.704 25.9959C10.1896 27.4836 8.78604 28.4847 7.21148 28.4847H5.50901C2.63279 28.4847 0.300339 30.8167 0.300339 33.6943V34.9207C0.300339 37.797 2.63313 40.1308 5.50901 40.1294H7.24876C8.81717 40.1294 10.2184 41.1212 10.7368 42.6017C11.0556 43.5063 11.4236 44.388 11.8377 45.243C12.5251 46.6578 12.2406 48.3569 11.1267 49.4705L9.92422 50.6729C7.88932 52.7068 7.88932 56.0054 9.92422 58.0406L10.7922 58.9083C12.8258 60.9415 16.1243 60.9415 18.1579 58.9069L19.387 57.6778C20.4961 56.5697 22.1866 56.2804 23.6001 56.9589C24.4562 57.3696 25.3399 57.7332 26.2465 58.0478C27.7349 58.5615 28.7349 59.9654 28.7349 61.54V63.2407C28.7349 66.119 31.067 68.4501 33.9436 68.4501H35.171C38.0476 68.4508 40.381 66.119 40.3797 63.2414V61.502C40.3797 59.9329 41.3704 58.5334 42.8506 58.0146C43.7559 57.6959 44.6379 57.3286 45.4929 56.9137C46.9084 56.2256 48.6075 56.5102 49.7204 57.6237L50.9222 58.8262C52.9581 60.8621 56.256 60.8607 58.2902 58.8269L59.1582 57.9599C61.1914 55.9254 61.1928 52.6254 59.1582 50.5936L57.9287 49.3637C56.8193 48.2557 56.531 46.5648 57.2088 45.151C57.6202 44.2953 57.9841 43.4116 58.297 42.5053C58.8131 41.0162 60.2143 40.0165 61.7902 40.0165H63.4917C66.37 40.0165 68.7003 37.6841 68.7003 34.8072V33.5801C68.7 30.7032 66.3676 28.3694 63.4924 28.3714ZM34.5 46.9215C27.503 46.9215 21.8296 41.2491 21.8296 34.2511C21.8296 27.2524 27.503 21.5793 34.5 21.5793C41.4973 21.5793 47.1718 27.2524 47.1718 34.2511C47.1721 41.2491 41.4977 46.9215 34.5 46.9215Z" fill="white"/>
</g>
<defs>
<clipPath id="clip0_756_2214">
<rect width="68.4" height="68.4" fill="white" transform="translate(0.300003 0.0500488)"/>
</clipPath>
</defs>
</svg>
