<svg width="35" height="24" viewBox="0 0 35 24" fill="none" xmlns="http://www.w3.org/2000/svg">
<path d="M1.92938 2.21178C5.55291 6.02354 8.1882 10.8235 10.5882 18.0235C12.047 22.3529 12.3294 22.8235 13.2705 22.6824C13.8823 22.6353 16.9882 22.4471 20.2353 22.3059C25.1294 22.0706 26.7764 22.1647 30.0235 22.9647L33.9764 23.9059L31.6705 21.5529C29.7882 19.5765 29.6 19.2471 30.5882 19.5294C31.247 19.7177 32.3764 20.1882 33.1294 20.6118L34.5411 21.3176L33.6941 19.9529C30.4941 14.9647 23.2 7.15295 18.0705 3.20001C14.0705 0.188248 13.9764 0.188248 16.047 3.24707C17.8823 5.97648 19.6235 10.1647 19.1529 10.6353C19.0588 10.7765 17.1764 9.74118 15.0117 8.32942C10.1647 5.2706 5.55291 2.68236 2.54114 1.36472L0.23526 0.423542L1.92938 2.21178ZM24.7058 15.2471C26.9176 16.9882 28.6588 18.5412 28.5647 18.6353C28.4705 18.7765 27.4352 18.6353 26.3058 18.4C25.1764 18.1177 23.1058 17.8824 21.6941 17.8824H19.2L19.4823 16.4235C19.6235 15.6235 19.7647 14.2118 19.7647 13.3177C19.7647 12.4235 19.9529 11.7647 20.2353 11.8588C20.4705 11.9059 22.4941 13.4588 24.7058 15.2471Z" fill="#003265"/>
</svg>
