<svg  viewBox="0 0 64 72" fill="none" xmlns="http://www.w3.org/2000/svg">
<path d="M4.35057 2.5H58.8763C59.7543 2.5 60.4446 3.25079 60.371 4.12572L55.5218 61.7779C55.4695 62.399 55.0385 62.9232 54.4392 63.0944L32.7509 69.2911C32.4889 69.3659 32.2114 69.368 31.9483 69.297L8.80557 63.0563C8.19579 62.8919 7.75432 62.3631 7.70139 61.7338L2.85585 4.12572C2.78226 3.25079 3.47255 2.5 4.35057 2.5Z" fill="#0596E6" stroke="#0287D0" stroke-width="5"/>
<path d="M26.8996 47.1249H27.9288V44.2674H27.2836C26.2697 44.2674 25.5477 44.0216 25.1175 43.5301C24.6874 43.0487 24.4723 42.2396 24.4723 41.1028V37.3083C24.4723 36.1919 24.1497 35.3214 23.5045 34.6967C22.8695 34.0719 21.9324 33.693 20.6931 33.5599V33.1143C21.9324 32.9812 22.8695 32.6023 23.5045 31.9775C24.1497 31.3528 24.4723 30.4874 24.4723 29.3813V25.6021C24.4723 24.4653 24.6874 23.6562 25.1175 23.1749C25.5477 22.6833 26.2697 22.4375 27.2836 22.4375H27.9288V19.5801H26.8996C24.7693 19.5801 23.2228 20.0256 22.2601 20.9166C21.3076 21.8076 20.8314 23.2158 20.8314 25.1413V28.2752C20.8314 29.4427 20.5651 30.2621 20.0326 30.7332C19.5102 31.2043 18.6039 31.445 17.3134 31.4552V35.2344C18.6039 35.2344 19.5102 35.475 20.0326 35.9564C20.5651 36.4275 20.8314 37.2468 20.8314 38.4144V41.5176C20.8314 43.4532 21.3128 44.8717 22.2755 45.773C23.2484 46.6742 24.7898 47.1249 26.8996 47.1249Z" fill="white"/>
<path d="M36.0095 47.1249C38.1192 47.1249 39.6555 46.6742 40.6182 45.773C41.5911 44.8717 42.0776 43.4532 42.0776 41.5176V38.4144C42.0776 37.2468 42.3388 36.4275 42.8611 35.9564C43.3936 35.475 44.3051 35.2344 45.5956 35.2344V31.4552C44.3154 31.445 43.409 31.2043 42.8764 30.7332C42.3439 30.2621 42.0776 29.4427 42.0776 28.2752V25.1413C42.0776 23.2158 41.5962 21.8076 40.6335 20.9166C39.6811 20.0256 38.1397 19.5801 36.0095 19.5801H34.9802V22.4375H35.6408C36.6547 22.4375 37.3767 22.6833 37.8069 23.1749C38.237 23.6562 38.4521 24.4653 38.4521 25.6021V29.3813C38.4521 30.4874 38.7696 31.3528 39.4045 31.9775C40.0498 32.6023 40.992 32.9812 42.2312 33.1143V33.5599C40.992 33.693 40.0498 34.0719 39.4045 34.6967C38.7696 35.3214 38.4521 36.1919 38.4521 37.3083V41.1028C38.4521 42.2396 38.2319 43.0487 37.7915 43.5301C37.3613 44.0216 36.6444 44.2674 35.6408 44.2674H34.9802V47.1249H36.0095Z" fill="white"/>
</svg>
