<svg viewBox="0 0 50 11" fill="none"
    xmlns="http://www.w3.org/2000/svg">
    <path d="M49 10H1V7.73684C1 6.63227 1.89543 5.73684 3 5.73684H7.19355V2C7.19355 1.44771 7.64126 1 8.19355 1H41.8064C42.3587 1 42.8064 1.44772 42.8064 2V5.73684H47C48.1046 5.73684 49 6.63227 49 7.73684V10Z" fill="#343D46"/>
    <path d="M7.19355 5.73684H3C1.89543 5.73684 1 6.63227 1 7.73684V10H49V7.73684C49 6.63227 48.1046 5.73684 47 5.73684H42.8065M7.19355 5.73684V2C7.19355 1.44771 7.64126 1 8.19355 1H41.8065C42.3587 1 42.8065 1.44772 42.8065 2V5.73684M7.19355 5.73684H42.8065" stroke="#343D46" stroke-width="2"/>
</svg>
