<svg viewBox="0 0 70 69" fill="none" xmlns="http://www.w3.org/2000/svg">
<g clip-path="url(#clip0_756_757)">
<path d="M35 29.3643C41.0308 29.3643 46.6672 28.8172 51.9092 27.723C57.1511 26.6288 61.2862 25.013 64.3143 22.8755V29.3643C64.3143 31.1201 63.0038 32.7487 60.3828 34.25C57.7618 35.7514 54.1993 36.941 49.6953 37.8189C45.1913 38.6968 40.2929 39.1358 35 39.1358C29.7071 39.1358 24.8087 38.6968 20.3047 37.8189C15.8007 36.941 12.2382 35.7514 9.61719 34.25C6.99621 32.7487 5.68571 31.1201 5.68571 29.3643V22.8755C8.71384 25.013 12.8489 26.6288 18.0908 27.723C23.3328 28.8172 28.9692 29.3643 35 29.3643ZM35 58.6786C41.0308 58.6786 46.6672 58.1315 51.9092 57.0373C57.1511 55.9431 61.2862 54.3273 64.3143 52.1898V58.6786C64.3143 60.4344 63.0038 62.063 60.3828 63.5643C57.7618 65.0657 54.1993 66.2553 49.6953 67.1332C45.1913 68.0111 40.2929 68.45 35 68.45C29.7071 68.45 24.8087 68.0111 20.3047 67.1332C15.8007 66.2553 12.2382 65.0657 9.61719 63.5643C6.99621 62.063 5.68571 60.4344 5.68571 58.6786V52.1898C8.71384 54.3273 12.8489 55.9431 18.0908 57.0373C23.3328 58.1315 28.9692 58.6786 35 58.6786ZM35 44.0215C41.0308 44.0215 46.6672 43.4744 51.9092 42.3802C57.1511 41.286 61.2862 39.6701 64.3143 37.5326V44.0215C64.3143 45.7773 63.0038 47.4059 60.3828 48.9072C57.7618 50.4085 54.1993 51.5981 49.6953 52.4761C45.1913 53.354 40.2929 53.7929 35 53.7929C29.7071 53.7929 24.8087 53.354 20.3047 52.4761C15.8007 51.5981 12.2382 50.4085 9.61719 48.9072C6.99621 47.4059 5.68571 45.7773 5.68571 44.0215V37.5326C8.71384 39.6701 12.8489 41.286 18.0908 42.3802C23.3328 43.4744 28.9692 44.0215 35 44.0215ZM35 0.0500488C40.2929 0.0500488 45.1913 0.489 49.6953 1.3669C54.1993 2.2448 57.7618 3.43442 60.3828 4.93576C63.0038 6.4371 64.3143 8.06567 64.3143 9.82148V14.7072C64.3143 16.463 63.0038 18.0916 60.3828 19.5929C57.7618 21.0942 54.1993 22.2839 49.6953 23.1618C45.1913 24.0397 40.2929 24.4786 35 24.4786C29.7071 24.4786 24.8087 24.0397 20.3047 23.1618C15.8007 22.2839 12.2382 21.0942 9.61719 19.5929C6.99621 18.0916 5.68571 16.463 5.68571 14.7072V9.82148C5.68571 8.06567 6.99621 6.4371 9.61719 4.93576C12.2382 3.43442 15.8007 2.2448 20.3047 1.3669C24.8087 0.489 29.7071 0.0500488 35 0.0500488Z" fill="#F9F9F9"/>
</g>
<defs>
<clipPath id="clip0_756_757">
<rect width="68.4" height="68.4" fill="white" transform="translate(0.800003 0.0500488)"/>
</clipPath>
</defs>
</svg>
