<svg viewBox="0 0 111 26" fill="none"
    xmlns="http://www.w3.org/2000/svg">
    <path d="M34.6666 25.5366V0.955293H35.9687V4.82196C36.1225 4.65051 36.2645 4.46838 36.3937 4.27689C37.4812 1.96649 39.775 0.50836 42.2791 0.53716C45.2479 0.446493 47.6604 1.57183 49.0781 4.27689C49.9803 5.9574 50.4767 7.83453 50.526 9.75154C50.5753 11.6686 50.176 13.5698 49.3614 15.2966C48.0406 18.3281 44.7781 19.8353 41.2854 19.2817C40.1984 19.1871 39.1519 18.8152 38.2414 18.1999C37.3309 17.5847 36.5854 16.7457 36.0729 15.7596V25.5356L34.6666 25.5366ZM35.9687 9.65076L36.2604 12.5372C36.775 15.8225 38.6719 17.7638 41.65 18.1286C43.0485 18.3641 44.4835 18.0956 45.7104 17.3689C46.9373 16.6422 47.8801 15.5024 48.3781 14.1436C49.5364 11.3169 49.451 8.11689 48.1489 5.35636C47.6174 4.13831 46.7132 3.13052 45.5728 2.48528C44.4325 1.84004 43.118 1.59242 41.8281 1.77983C40.6173 1.87003 39.464 2.34413 38.5284 3.13627C37.5928 3.92841 36.9213 4.99927 36.6073 6.20009C36.33 7.33646 36.1168 8.48823 35.9687 9.64969V9.65076ZM77.1125 12.9916C76.915 14.7223 76.1104 16.3207 74.8483 17.4895C73.5862 18.6583 71.9525 19.3179 70.251 19.3457C64.7906 19.6273 62.2281 15.9142 61.8208 11.6294C61.5376 9.30256 61.9064 6.94119 62.8844 4.82089C63.565 3.36638 64.6801 2.17151 66.0683 1.40938C67.4564 0.647257 69.0454 0.357456 70.6052 0.58196C72.088 0.71102 73.4936 1.31432 74.6231 2.30649C75.7526 3.29866 76.5488 4.62944 76.8989 6.11049C77.1763 7.45965 77.3805 8.82352 77.5104 10.1958H63.1698C62.9041 14.0806 64.9427 17.2038 67.8323 17.9569C71.4312 18.8636 74.5073 17.2668 75.6239 13.7628C75.8719 12.8636 76.3239 12.7366 77.1219 12.9916H77.1125ZM63.1594 8.95209H75.9864C75.9062 4.81343 73.3896 1.80543 69.976 1.77129C66.1219 1.70729 63.3271 4.59476 63.1594 8.95209V8.95209ZM79.7635 13.0822H81.0208C81.067 14.0307 81.3678 14.9478 81.8901 15.7326C82.4124 16.5173 83.136 17.1394 83.9812 17.5302C85.0426 18.0193 86.1979 18.257 87.3614 18.2256C88.5248 18.1942 89.6663 17.8945 90.701 17.3489C91.265 17.0888 91.7375 16.6578 92.0546 16.1139C92.3716 15.57 92.518 14.9396 92.4739 14.3078C92.5064 13.6985 92.3439 13.095 92.0112 12.5887C91.6785 12.0825 91.1937 11.7011 90.6302 11.5025C89.2469 10.9756 87.776 10.6854 86.3667 10.2225C84.9001 9.79494 83.466 9.25804 82.076 8.61609C79.8052 7.48116 79.6646 3.06089 82.2354 1.66143C83.5518 0.900798 85.0332 0.489809 86.5445 0.46596C88.0558 0.442111 89.5489 0.806161 90.8875 1.52489C92.5479 2.46356 93.4656 4.35903 93.1927 6.28223H92.1146C92.1146 6.22889 92.0166 6.18196 92.0166 6.12756C91.8833 2.60756 88.9937 1.50676 85.8917 1.81609C84.9542 1.92276 84.0656 2.21289 83.2323 2.64169C82.7313 2.87595 82.3139 3.26386 82.0377 3.75174C81.7615 4.23961 81.6402 4.80333 81.6906 5.36489C81.6917 5.92687 81.8627 6.47473 82.1801 6.93314C82.4976 7.39155 82.9459 7.73801 83.4635 7.92489C84.8177 8.43369 86.2552 8.76009 87.6562 9.15903L91.0417 10.0657C91.8111 10.3243 92.4858 10.816 92.9765 11.4758C93.4671 12.1356 93.7507 12.9323 93.7896 13.7606C94.0604 15.622 93.1333 17.4513 91.4937 18.2993C88.5333 20.0145 83.6573 19.5612 81.4854 17.3926C80.3739 16.2481 79.7541 14.694 79.7666 13.0812L79.7635 13.0822ZM109.743 6.28329H108.564C108.564 6.12009 108.501 5.96329 108.483 5.83849C108.464 4.93339 108.142 4.06244 107.571 3.37166C106.999 2.68087 106.214 2.21225 105.345 2.04436C103.706 1.56305 101.958 1.64929 100.372 2.28969C99.7447 2.47348 99.1926 2.86019 98.7979 3.392C98.4032 3.92381 98.1872 4.57216 98.1823 5.24009C98.1598 5.89594 98.3593 6.5396 98.7468 7.06224C99.1344 7.58487 99.6864 7.95441 100.309 8.10836L105.699 9.52489C106.282 9.66803 106.856 9.84684 107.418 10.0604C109.136 10.7004 110.303 12.3345 110.355 14.2022C110.381 15.1164 110.136 16.0173 109.653 16.7864C109.169 17.5555 108.47 18.1569 107.647 18.5116C106.396 19.0934 105.04 19.4013 103.666 19.4154C102.292 19.4296 100.931 19.1497 99.6687 18.5937C98.6308 18.1354 97.7549 17.3625 97.159 16.379C96.563 15.3955 96.2756 14.2487 96.3354 13.0929H97.4875C97.9208 15.2316 99.3552 17.0129 101.323 17.8556C103.291 18.6982 105.537 18.4913 107.327 17.3052C107.864 17.0192 108.31 16.5818 108.611 16.0445C108.913 15.5072 109.058 14.8927 109.029 14.2737C109.056 13.664 108.888 13.0619 108.55 12.5589C108.212 12.0559 107.724 11.6794 107.158 11.4865C105.775 10.9596 104.304 10.679 102.895 10.2065C101.42 9.78552 99.9773 9.25468 98.5781 8.61823C96.3614 7.50143 96.1844 3.11743 98.7114 1.71903C100.044 0.926475 101.554 0.500696 103.095 0.483126C104.636 0.465555 106.156 0.856791 107.505 1.61876C108.277 2.0905 108.898 2.78189 109.293 3.60875C109.689 4.43561 109.84 5.36224 109.73 6.27583L109.743 6.28329ZM32.5239 18.902C32.0598 19.0817 31.5474 19.0812 31.0836 18.9006C30.6198 18.72 30.2365 18.3718 30.0062 17.9217L25.4229 11.431L24.7583 10.5244L19.4396 17.9313C19.2228 18.3621 18.8603 18.6973 18.4198 18.8743C17.9793 19.0514 17.4909 19.0582 17.0458 18.8934L23.8979 9.48009L17.5229 0.974493C18.4687 0.624626 19.5229 1.00436 20.0489 1.88116L24.7989 8.45183L29.5771 1.90676C29.7955 1.48338 30.1582 1.15697 30.5963 0.989603C31.0344 0.822236 31.5173 0.82559 31.9531 0.999027L29.4792 4.36009L26.1281 8.82623C26.0351 8.91128 25.9607 9.01548 25.9097 9.13202C25.8588 9.24856 25.8325 9.37481 25.8325 9.50249C25.8325 9.63018 25.8588 9.75643 25.9097 9.87297C25.9607 9.98951 26.0351 10.0937 26.1281 10.1788L32.5104 18.902H32.5239ZM61.6177 0.883827V2.16383C60.7211 2.10361 59.8221 2.23656 58.9788 2.55411C58.1355 2.87166 57.3666 3.36675 56.7217 4.00742C56.0768 4.64809 55.5703 5.4201 55.2348 6.27363C54.8993 7.12717 54.7423 8.04325 54.7739 8.96276C54.7739 11.9523 54.7739 14.9418 54.7739 17.9313V18.9478H53.5062V0.963826H54.7562V4.64916C56.2896 1.96116 58.6562 0.963827 61.626 0.891294L61.6177 0.883827ZM0.638528 9.36276L1.19686 6.53929C2.73019 0.95636 8.98019 -1.36684 13.2802 2.09129C15.7979 4.11583 16.426 6.98409 16.3031 10.2161H2.11874C1.88957 15.9889 5.95728 19.4748 11.1604 17.6956C12.875 17.0556 14.1656 15.5964 14.5906 13.783C14.8656 12.8764 15.3198 12.7206 16.151 12.983C16.0124 14.0882 15.6308 15.1469 15.0351 16.0793C14.4393 17.0118 13.6449 17.7938 12.7114 18.3665C11.1693 19.2301 9.4 19.5723 7.6565 19.3441C5.91301 19.1159 4.28461 18.3291 3.00415 17.0961C1.73749 15.638 0.972903 13.7948 0.823944 11.8481C0.823944 11.5281 0.719778 11.2294 0.646861 10.9414C0.639917 10.4031 0.636444 9.87689 0.636444 9.36276H0.638528ZM2.13644 8.97236H14.9635C14.8833 4.78783 12.3042 1.81929 8.86457 1.79156C5.0354 1.73823 2.29582 4.64169 2.12707 8.95423L2.13644 8.97236Z" fill="#343D46"/>
</svg>
