<svg viewBox="0 0 33 32" fill="none"
    xmlns="http://www.w3.org/2000/svg">
    <path d="M16.4045 0C7.34648 0 0 7.34511 0 16.4045C0 23.6525 4.69988 29.8015 11.2193 31.971C12.0382 32.1227 12.3034 31.6142 12.3034 31.1822V28.1282C7.74018 29.1207 6.79009 26.1925 6.79009 26.1925C6.04369 24.2964 4.96783 23.792 4.96783 23.792C3.47912 22.7735 5.08129 22.7954 5.08129 22.7954C6.72857 22.9102 7.59528 24.4864 7.59528 24.4864C9.05801 26.9936 11.4326 26.269 12.369 25.8494C12.5153 24.7899 12.9404 24.0654 13.4107 23.6566C9.7675 23.2397 5.93706 21.833 5.93706 15.5487C5.93706 13.7565 6.5782 12.2938 7.62672 11.1455C7.45721 10.7313 6.89535 9.06211 7.78666 6.80376C7.78666 6.80376 9.16464 6.36357 12.2993 8.48522C13.6075 8.12159 15.0101 7.93977 16.4045 7.93294C17.7989 7.93977 19.2028 8.12159 20.5138 8.48522C23.6457 6.36357 25.0209 6.80376 25.0209 6.80376C25.9136 9.06348 25.3518 10.7326 25.1823 11.1455C26.2349 12.2938 26.8705 13.7579 26.8705 15.5487C26.8705 21.8494 23.0333 23.237 19.3805 23.643C19.9684 24.1515 20.5056 25.1494 20.5056 26.6805V31.1822C20.5056 31.6183 20.7681 32.1309 21.6006 31.9696C28.1146 29.7974 32.809 23.6498 32.809 16.4045C32.809 7.34511 25.4639 0 16.4045 0Z" fill="black"/>
</svg>
