<svg viewBox="0 0 143 33" fill="none"
    xmlns="http://www.w3.org/2000/svg">
    <path d="M37.808 24.24C36.832 24.24 36.024 24.064 35.384 23.712C34.744 23.344 34.264 22.8 33.944 22.08C33.64 21.36 33.488 20.464 33.488 19.392V13.584C33.488 13.072 33.616 12.696 33.872 12.456C34.128 12.2 34.496 12.072 34.976 12.072C35.456 12.072 35.824 12.2 36.08 12.456C36.352 12.696 36.488 13.072 36.488 13.584V19.44C36.488 20.272 36.656 20.888 36.992 21.288C37.328 21.688 37.864 21.888 38.6 21.888C39.4 21.888 40.056 21.616 40.568 21.072C41.08 20.512 41.336 19.776 41.336 18.864V13.584C41.336 13.072 41.464 12.696 41.72 12.456C41.976 12.2 42.344 12.072 42.824 12.072C43.304 12.072 43.672 12.2 43.928 12.456C44.2 12.696 44.336 13.072 44.336 13.584V22.656C44.336 23.68 43.848 24.192 42.872 24.192C42.408 24.192 42.048 24.064 41.792 23.808C41.536 23.536 41.408 23.152 41.408 22.656V20.832L41.744 21.552C41.408 22.416 40.896 23.08 40.208 23.544C39.536 24.008 38.736 24.24 37.808 24.24ZM53.2424 24.24C51.9144 24.24 50.7704 23.992 49.8104 23.496C48.8504 23 48.1064 22.296 47.5784 21.384C47.0664 20.472 46.8104 19.392 46.8104 18.144C46.8104 16.928 47.0584 15.864 47.5544 14.952C48.0664 14.04 48.7624 13.328 49.6424 12.816C50.5384 12.288 51.5544 12.024 52.6904 12.024C53.5224 12.024 54.2664 12.16 54.9224 12.432C55.5944 12.704 56.1624 13.096 56.6264 13.608C57.1064 14.12 57.4664 14.744 57.7064 15.48C57.9624 16.2 58.0904 17.016 58.0904 17.928C58.0904 18.216 57.9864 18.44 57.7784 18.6C57.5864 18.744 57.3064 18.816 56.9384 18.816H49.2344V17.088H55.9784L55.5944 17.448C55.5944 16.712 55.4824 16.096 55.2584 15.6C55.0504 15.104 54.7384 14.728 54.3224 14.472C53.9224 14.2 53.4184 14.064 52.8104 14.064C52.1384 14.064 51.5624 14.224 51.0824 14.544C50.6184 14.848 50.2584 15.288 50.0024 15.864C49.7624 16.424 49.6424 17.096 49.6424 17.88V18.048C49.6424 19.36 49.9464 20.344 50.5544 21C51.1784 21.64 52.0904 21.96 53.2904 21.96C53.7064 21.96 54.1704 21.912 54.6824 21.816C55.2104 21.704 55.7064 21.52 56.1704 21.264C56.5064 21.072 56.8024 20.992 57.0584 21.024C57.3144 21.04 57.5144 21.128 57.6584 21.288C57.8184 21.448 57.9144 21.648 57.9464 21.888C57.9784 22.112 57.9304 22.344 57.8024 22.584C57.6904 22.824 57.4904 23.032 57.2024 23.208C56.6424 23.56 55.9944 23.824 55.2584 24C54.5384 24.16 53.8664 24.24 53.2424 24.24ZM64.7623 24.24C64.0743 24.24 63.3463 24.168 62.5783 24.024C61.8103 23.88 61.1223 23.632 60.5143 23.28C60.2583 23.12 60.0743 22.936 59.9623 22.728C59.8663 22.504 59.8263 22.288 59.8423 22.08C59.8743 21.856 59.9543 21.664 60.0823 21.504C60.2263 21.344 60.4023 21.24 60.6103 21.192C60.8343 21.144 61.0743 21.184 61.3303 21.312C61.9703 21.616 62.5703 21.832 63.1303 21.96C63.6903 22.072 64.2423 22.128 64.7863 22.128C65.5543 22.128 66.1223 22 66.4903 21.744C66.8743 21.472 67.0663 21.12 67.0663 20.688C67.0663 20.32 66.9383 20.04 66.6823 19.848C66.4423 19.64 66.0743 19.488 65.5783 19.392L63.1783 18.936C62.1863 18.744 61.4263 18.384 60.8983 17.856C60.3863 17.312 60.1303 16.616 60.1303 15.768C60.1303 15 60.3383 14.336 60.7543 13.776C61.1863 13.216 61.7783 12.784 62.5303 12.48C63.2823 12.176 64.1463 12.024 65.1223 12.024C65.8263 12.024 66.4823 12.104 67.0903 12.264C67.7143 12.408 68.3143 12.64 68.8903 12.96C69.1303 13.088 69.2903 13.256 69.3703 13.464C69.4663 13.672 69.4903 13.888 69.4423 14.112C69.3943 14.32 69.2983 14.512 69.1543 14.688C69.0103 14.848 68.8263 14.952 68.6023 15C68.3943 15.032 68.1543 14.984 67.8823 14.856C67.3863 14.6 66.9063 14.416 66.4423 14.304C65.9943 14.192 65.5623 14.136 65.1463 14.136C64.3623 14.136 63.7783 14.272 63.3943 14.544C63.0263 14.816 62.8423 15.176 62.8423 15.624C62.8423 15.96 62.9543 16.24 63.1783 16.464C63.4023 16.688 63.7463 16.84 64.2103 16.92L66.6103 17.376C67.6503 17.568 68.4343 17.92 68.9623 18.432C69.5063 18.944 69.7783 19.632 69.7783 20.496C69.7783 21.664 69.3223 22.584 68.4103 23.256C67.4983 23.912 66.2823 24.24 64.7623 24.24ZM77.4438 24.24C76.4038 24.24 75.5318 24.064 74.8278 23.712C74.1398 23.36 73.6278 22.848 73.2918 22.176C72.9558 21.488 72.7878 20.64 72.7878 19.632V14.52H71.5398C71.1558 14.52 70.8598 14.424 70.6518 14.232C70.4438 14.024 70.3398 13.744 70.3398 13.392C70.3398 13.024 70.4438 12.744 70.6518 12.552C70.8598 12.36 71.1558 12.264 71.5398 12.264H72.7878V10.08C72.7878 9.584 72.9158 9.208 73.1718 8.952C73.4438 8.696 73.8198 8.568 74.2998 8.568C74.7798 8.568 75.1478 8.696 75.4038 8.952C75.6598 9.208 75.7878 9.584 75.7878 10.08V12.264H78.3318C78.7158 12.264 79.0118 12.36 79.2198 12.552C79.4278 12.744 79.5318 13.024 79.5318 13.392C79.5318 13.744 79.4278 14.024 79.2198 14.232C79.0118 14.424 78.7158 14.52 78.3318 14.52H75.7878V19.464C75.7878 20.232 75.9558 20.808 76.2918 21.192C76.6278 21.576 77.1718 21.768 77.9238 21.768C78.1958 21.768 78.4358 21.744 78.6438 21.696C78.8518 21.648 79.0358 21.616 79.1958 21.6C79.3878 21.584 79.5478 21.648 79.6758 21.792C79.8038 21.92 79.8678 22.192 79.8678 22.608C79.8678 22.928 79.8118 23.216 79.6998 23.472C79.6038 23.712 79.4198 23.88 79.1478 23.976C78.9398 24.04 78.6678 24.096 78.3318 24.144C77.9958 24.208 77.6998 24.24 77.4438 24.24ZM83.0714 24.168C82.5914 24.168 82.2234 24.024 81.9674 23.736C81.7114 23.448 81.5834 23.048 81.5834 22.536V13.728C81.5834 13.2 81.7114 12.8 81.9674 12.528C82.2234 12.24 82.5914 12.096 83.0714 12.096C83.5514 12.096 83.9194 12.24 84.1754 12.528C84.4474 12.8 84.5834 13.2 84.5834 13.728V22.536C84.5834 23.048 84.4554 23.448 84.1994 23.736C83.9434 24.024 83.5674 24.168 83.0714 24.168ZM83.0714 9.864C82.5114 9.864 82.0714 9.728 81.7514 9.456C81.4474 9.168 81.2954 8.776 81.2954 8.28C81.2954 7.768 81.4474 7.376 81.7514 7.104C82.0714 6.832 82.5114 6.696 83.0714 6.696C83.6474 6.696 84.0874 6.832 84.3914 7.104C84.6954 7.376 84.8474 7.768 84.8474 8.28C84.8474 8.776 84.6954 9.168 84.3914 9.456C84.0874 9.728 83.6474 9.864 83.0714 9.864ZM89.2366 24.192C88.7566 24.192 88.3886 24.064 88.1326 23.808C87.8766 23.536 87.7486 23.152 87.7486 22.656V13.584C87.7486 13.088 87.8766 12.712 88.1326 12.456C88.3886 12.2 88.7486 12.072 89.2126 12.072C89.6766 12.072 90.0366 12.2 90.2926 12.456C90.5486 12.712 90.6766 13.088 90.6766 13.584V15.336L90.4126 14.616C90.7326 13.816 91.2286 13.184 91.9006 12.72C92.5726 12.256 93.3726 12.024 94.3006 12.024C95.2446 12.024 96.0206 12.248 96.6286 12.696C97.2366 13.144 97.6606 13.832 97.9006 14.76H97.5646C97.8846 13.912 98.4126 13.248 99.1486 12.768C99.8846 12.272 100.733 12.024 101.693 12.024C102.589 12.024 103.325 12.2 103.901 12.552C104.493 12.904 104.933 13.44 105.221 14.16C105.509 14.864 105.653 15.76 105.653 16.848V22.656C105.653 23.152 105.517 23.536 105.245 23.808C104.989 24.064 104.621 24.192 104.141 24.192C103.661 24.192 103.293 24.064 103.037 23.808C102.781 23.536 102.653 23.152 102.653 22.656V16.968C102.653 16.072 102.501 15.416 102.197 15C101.909 14.584 101.413 14.376 100.709 14.376C99.9246 14.376 99.3086 14.656 98.8606 15.216C98.4126 15.76 98.1886 16.52 98.1886 17.496V22.656C98.1886 23.152 98.0606 23.536 97.8046 23.808C97.5486 24.064 97.1806 24.192 96.7006 24.192C96.2206 24.192 95.8446 24.064 95.5726 23.808C95.3166 23.536 95.1886 23.152 95.1886 22.656V16.968C95.1886 16.072 95.0366 15.416 94.7326 15C94.4446 14.584 93.9566 14.376 93.2686 14.376C92.4846 14.376 91.8686 14.656 91.4206 15.216C90.9726 15.76 90.7486 16.52 90.7486 17.496V22.656C90.7486 23.68 90.2446 24.192 89.2366 24.192ZM112.612 24.24C111.764 24.24 111.004 24.08 110.332 23.76C109.676 23.424 109.156 22.976 108.771 22.416C108.404 21.856 108.22 21.224 108.22 20.52C108.22 19.656 108.444 18.976 108.892 18.48C109.34 17.968 110.068 17.6 111.076 17.376C112.084 17.152 113.436 17.04 115.132 17.04H116.332V18.768H115.156C114.164 18.768 113.372 18.816 112.78 18.912C112.188 19.008 111.764 19.176 111.508 19.416C111.268 19.64 111.148 19.96 111.148 20.376C111.148 20.904 111.332 21.336 111.7 21.672C112.068 22.008 112.58 22.176 113.236 22.176C113.764 22.176 114.228 22.056 114.628 21.816C115.044 21.56 115.372 21.216 115.612 20.784C115.852 20.352 115.972 19.856 115.972 19.296V16.536C115.972 15.736 115.796 15.16 115.444 14.808C115.092 14.456 114.5 14.28 113.668 14.28C113.204 14.28 112.7 14.336 112.156 14.448C111.628 14.56 111.068 14.752 110.476 15.024C110.172 15.168 109.9 15.208 109.66 15.144C109.436 15.08 109.26 14.952 109.132 14.76C109.004 14.552 108.94 14.328 108.94 14.088C108.94 13.848 109.004 13.616 109.132 13.392C109.26 13.152 109.476 12.976 109.78 12.864C110.516 12.56 111.22 12.344 111.892 12.216C112.58 12.088 113.204 12.024 113.764 12.024C114.916 12.024 115.86 12.2 116.596 12.552C117.348 12.904 117.908 13.44 118.276 14.16C118.644 14.864 118.828 15.776 118.828 16.896V22.656C118.828 23.152 118.708 23.536 118.468 23.808C118.228 24.064 117.884 24.192 117.436 24.192C116.988 24.192 116.636 24.064 116.38 23.808C116.14 23.536 116.02 23.152 116.02 22.656V21.504H116.212C116.1 22.064 115.876 22.552 115.54 22.968C115.22 23.368 114.812 23.68 114.316 23.904C113.82 24.128 113.252 24.24 112.612 24.24ZM127.249 24.24C126.209 24.24 125.337 24.064 124.633 23.712C123.945 23.36 123.433 22.848 123.097 22.176C122.761 21.488 122.593 20.64 122.593 19.632V14.52H121.345C120.961 14.52 120.665 14.424 120.457 14.232C120.248 14.024 120.144 13.744 120.144 13.392C120.144 13.024 120.248 12.744 120.457 12.552C120.665 12.36 120.961 12.264 121.345 12.264H122.593V10.08C122.593 9.584 122.721 9.208 122.977 8.952C123.249 8.696 123.625 8.568 124.105 8.568C124.585 8.568 124.953 8.696 125.209 8.952C125.465 9.208 125.593 9.584 125.593 10.08V12.264H128.137C128.521 12.264 128.817 12.36 129.025 12.552C129.233 12.744 129.337 13.024 129.337 13.392C129.337 13.744 129.233 14.024 129.025 14.232C128.817 14.424 128.521 14.52 128.137 14.52H125.593V19.464C125.593 20.232 125.761 20.808 126.097 21.192C126.433 21.576 126.977 21.768 127.729 21.768C128.001 21.768 128.241 21.744 128.449 21.696C128.657 21.648 128.841 21.616 129.001 21.6C129.193 21.584 129.353 21.648 129.481 21.792C129.609 21.92 129.673 22.192 129.673 22.608C129.673 22.928 129.617 23.216 129.505 23.472C129.409 23.712 129.225 23.88 128.953 23.976C128.745 24.04 128.473 24.096 128.137 24.144C127.801 24.208 127.505 24.24 127.249 24.24ZM136.75 24.24C135.422 24.24 134.278 23.992 133.318 23.496C132.358 23 131.614 22.296 131.086 21.384C130.574 20.472 130.318 19.392 130.318 18.144C130.318 16.928 130.566 15.864 131.062 14.952C131.574 14.04 132.27 13.328 133.15 12.816C134.046 12.288 135.062 12.024 136.198 12.024C137.03 12.024 137.774 12.16 138.43 12.432C139.102 12.704 139.67 13.096 140.134 13.608C140.614 14.12 140.974 14.744 141.214 15.48C141.47 16.2 141.598 17.016 141.598 17.928C141.598 18.216 141.494 18.44 141.286 18.6C141.094 18.744 140.814 18.816 140.446 18.816H132.742V17.088H139.486L139.102 17.448C139.102 16.712 138.99 16.096 138.766 15.6C138.558 15.104 138.246 14.728 137.83 14.472C137.43 14.2 136.926 14.064 136.318 14.064C135.646 14.064 135.07 14.224 134.59 14.544C134.126 14.848 133.766 15.288 133.51 15.864C133.27 16.424 133.15 17.096 133.15 17.88V18.048C133.15 19.36 133.454 20.344 134.062 21C134.686 21.64 135.598 21.96 136.798 21.96C137.214 21.96 137.678 21.912 138.19 21.816C138.718 21.704 139.214 21.52 139.678 21.264C140.014 21.072 140.31 20.992 140.566 21.024C140.822 21.04 141.022 21.128 141.166 21.288C141.326 21.448 141.422 21.648 141.454 21.888C141.486 22.112 141.438 22.344 141.31 22.584C141.198 22.824 140.998 23.032 140.71 23.208C140.15 23.56 139.502 23.824 138.766 24C138.046 24.16 137.374 24.24 136.75 24.24Z" fill="#1B9C73"/>
    <rect y="0.5" width="32" height="32" rx="4" fill="#1B9C73"/>
    <path d="M17.8874 27.2136C15.5716 27.457 13.5727 27.2293 11.8908 26.5306C10.2068 25.8118 8.86628 24.6801 7.86919 23.1358C6.89225 21.5893 6.28525 19.6883 6.04819 17.4329C5.8704 15.7414 5.94324 14.2067 6.26672 12.8289C6.60821 11.4289 7.17225 10.2091 7.95883 9.16949C8.76343 8.10764 9.78368 7.25726 11.0196 6.61836C12.2756 5.97734 13.7293 5.57006 15.3806 5.3965C16.5888 5.26951 17.7939 5.30573 18.9957 5.50517C20.1955 5.68448 21.3157 6.07574 22.3563 6.67897C22.6594 6.85071 22.865 7.06325 22.9731 7.31657C23.0812 7.56989 23.1097 7.84175 23.0588 8.13214C23.0259 8.40028 22.9194 8.64562 22.7391 8.86817C22.5791 9.08859 22.3602 9.23376 22.0825 9.30367C21.8249 9.37146 21.5245 9.32159 21.1811 9.15408C20.3386 8.69291 19.4717 8.38701 18.5804 8.23637C17.6869 8.06559 16.7166 8.03523 15.6695 8.14529C14.0987 8.31038 12.8035 8.77228 11.7838 9.53098C10.7842 10.2876 10.0772 11.3086 9.66254 12.5942C9.24582 13.8596 9.12847 15.3582 9.31049 17.09C9.59199 19.7683 10.4401 21.7356 11.8548 22.9917C13.2695 24.2479 15.2254 24.7447 17.7225 24.4823C18.6287 24.387 19.5063 24.2134 20.3553 23.9613C21.2223 23.6869 21.4318 23.6468 22.2035 23.2399L22.344 24.5768L21.6043 17.5387L17.7076 17.9483C17.3049 17.9906 16.9721 17.9238 16.7093 17.7478C16.4645 17.5496 16.322 17.2591 16.2818 16.8765C16.2415 16.4939 16.3227 16.2003 16.5251 15.9958C16.7456 15.769 17.0572 15.6345 17.46 15.5921L22.6857 15.0429C23.1086 14.9985 23.4424 15.0753 23.6872 15.2736C23.932 15.4718 24.0767 15.7824 24.1211 16.2053L24.9212 23.8173C24.9593 24.1798 24.9216 24.4993 24.8081 24.7759C24.7127 25.0303 24.5203 25.2337 24.231 25.3863C23.401 25.8197 22.4137 26.2085 21.269 26.5528C20.1222 26.8769 18.995 27.0972 17.8874 27.2136Z" fill="#D1EBE3"/>
    <path d="M16.0701 29.7543C16.1112 30.1453 16.7784 30.3956 17.5604 30.3134C18.3424 30.2312 18.943 29.8476 18.9019 29.4566L18.9018 29.4554L18.6291 26.8608L15.7972 27.1584L16.0701 29.7543Z" fill="#D1EBE3"/>
    <path d="M16.3599 3.00114C16.3188 2.61014 15.6516 2.3598 14.8696 2.442C14.0876 2.52419 13.487 2.90778 13.5281 3.29878L13.8009 5.89465L16.6328 5.59701L16.3599 3.00114Z" fill="#D1EBE3"/>
</svg>
