<svg viewBox="0 0 63 72" fill="none" xmlns="http://www.w3.org/2000/svg">
<path d="M4.35057 2.5H58.8763C59.7543 2.5 60.4446 3.25079 60.371 4.12572L55.5218 61.7779C55.4695 62.399 55.0385 62.9232 54.4392 63.0944L32.7509 69.2911C32.4889 69.3659 32.2114 69.368 31.9483 69.297L8.80557 63.0563C8.19579 62.8919 7.75432 62.3631 7.70139 61.7338L2.85585 4.12572C2.78226 3.25079 3.47255 2.5 4.35057 2.5Z" fill="#F16625" stroke="#E54C21" stroke-width="5"/>
<path d="M9.84848 37.7065L25.7486 43.452V40.0108L10.0636 34.6801V36.7847L25.7486 31.454V28.0896L9.84848 33.8351V37.7065Z" fill="white"/>
<path d="M37.0092 22.6052H33.5527L27.7457 50.15H31.2022L37.0092 22.6052Z" fill="white"/>
<path d="M54.8757 33.8351L38.9756 28.0896V31.5308L54.676 36.8615V34.7569L38.9756 40.0876V43.452L54.8757 37.7065V33.8351Z" fill="white"/>
</svg>
