<svg width="64" height="72" viewBox="0 0 64 72" fill="none" xmlns="http://www.w3.org/2000/svg">
<path d="M4.35057 2.5H58.8763C59.7543 2.5 60.4446 3.25079 60.371 4.12572L55.5218 61.7779C55.4695 62.399 55.0385 62.9232 54.4392 63.0944L32.7509 69.2911C32.4889 69.3659 32.2114 69.368 31.9483 69.297L8.80557 63.0563C8.19579 62.8919 7.75432 62.3631 7.70139 61.7338L2.85585 4.12572C2.78226 3.25079 3.47255 2.5 4.35057 2.5Z" fill="#F7DF1E" stroke="#E8D11A" stroke-width="5"/>
<path d="M36.1815 42.1109C37.3916 44.168 39.0857 45.6201 41.8689 45.6201C44.2891 45.6201 45.8622 44.4101 45.8622 42.7159C45.8622 40.7798 44.2891 40.0538 41.6269 38.8437L40.1748 38.2386C35.9395 36.4235 33.1563 34.2454 33.1563 29.526C33.1563 25.1697 36.4235 21.7815 41.6269 21.7815C45.3781 21.7815 48.0403 23.1126 49.8555 26.5008L45.3781 29.405C44.4101 27.5899 43.321 26.8638 41.6269 26.8638C39.9328 26.8638 38.8437 27.9529 38.8437 29.405C38.8437 31.0991 39.9328 31.8252 42.4739 32.9143L43.926 33.5193C48.8874 35.6975 51.6706 37.7546 51.6706 42.7159C51.6706 47.9193 47.5563 50.8235 41.9899 50.8235C36.5445 50.8235 33.0353 48.2823 31.3412 44.8941L36.1815 42.1109ZM15.6101 42.5949C16.5781 44.168 17.3042 45.6201 19.3613 45.6201C21.2975 45.6201 22.5076 44.8941 22.5076 41.9899V21.9025H28.316V41.7479C28.316 47.7983 24.8067 50.4605 19.6034 50.4605C14.884 50.4605 12.2218 48.0403 10.8907 45.1361L15.6101 42.5949Z" fill="#343D46"/>
</svg>
