<svg viewBox="0 0 63 98" fill="none"
    xmlns="http://www.w3.org/2000/svg">
    <g clip-path="url(#clip0_713_7044)">
        <path d="M8.69565 26.0869H52.1739V31.3043H8.69565V26.0869Z"/>
        <path d="M14.7064 18.941C14.4465 19.0704 14.1351 19.4079 13.9664 19.7318C13.6935 20.2501 13.6681 20.4575 13.6681 22.3246V24.3724L12.2135 24.4244C10.9413 24.4634 10.6553 24.5148 10.084 24.8133C9.30495 25.2152 8.66853 25.9019 8.30504 26.7187C8.07119 27.224 8.03212 27.6649 7.98063 29.6094L7.92853 31.9037L9.39613 31.9427L10.8631 31.9817L13.1613 53.111C15.9662 78.8556 15.6673 76.4053 16.0698 77.235C16.4985 78.1169 17.4072 78.92 18.2514 79.1665C19.2383 79.452 42.3769 79.452 43.3638 79.1665C44.208 78.92 45.1168 78.1162 45.5584 77.222C45.8828 76.5353 45.987 75.6665 48.3243 54.2517L50.7521 31.9811L52.2197 31.9421L53.6867 31.9031L53.6346 29.6088C53.5825 27.6643 53.5434 27.2234 53.3102 26.7181C52.9206 25.8493 52.2582 25.1756 51.3885 24.7607C50.6876 24.4368 50.4668 24.3978 49.2851 24.3978H47.9478V22.3499C47.9478 20.4575 47.9217 20.2501 47.6494 19.7311C47.4807 19.4073 47.1687 19.0698 46.9094 18.9404C46.4808 18.7069 45.8059 18.6939 30.8085 18.6939C15.8112 18.6939 15.1344 18.7075 14.7064 18.941ZM45.9994 22.5184V24.3978H30.8073H15.6152V22.5184V20.639H30.8073H45.9994V22.5184ZM50.7521 26.5503C51.5182 27.1076 51.6478 27.4321 51.6869 28.8186L51.739 30.1017H30.8203H9.90167V29C9.90167 27.3925 10.3433 26.5757 11.3562 26.3428C11.5901 26.2778 20.4714 26.2524 31.0933 26.2524C50.3756 26.2778 50.4016 26.2778 50.7521 26.5503ZM48.7914 32.461C48.7002 33.1347 48.2071 37.3871 48.2071 37.5165C48.2071 37.5816 40.3641 37.62 30.7682 37.62H13.317L13.0962 35.2476C12.9665 33.9515 12.8363 32.6678 12.7972 32.396L12.7196 31.9161H30.7943H48.8689L48.7914 32.461ZM47.9341 39.9149C47.9341 40.1223 47.3889 45.2039 46.7394 51.2316L45.5448 62.1855H30.8073H16.0698L15.9141 60.7594C15.8236 59.9686 15.2523 54.9131 14.6419 49.5076C14.0316 44.0892 13.5384 39.643 13.5384 39.617C13.5384 39.591 21.2772 39.565 30.7434 39.565H47.9484L47.9341 39.9149ZM45.2985 64.6742C45.2594 64.9461 44.9611 67.6429 44.6236 70.663C44.0002 76.5743 43.9742 76.6907 43.1951 77.17C42.8056 77.4035 42.416 77.4165 30.7943 77.4165C19.121 77.4165 18.7836 77.4035 18.381 77.157C18.1472 77.0276 17.8749 76.7421 17.7707 76.5347C17.641 76.2882 17.3681 74.2534 16.9786 70.6624C16.6541 67.6417 16.3552 64.9455 16.3161 64.6736L16.2379 64.1937H30.8073H45.3761L45.2985 64.6742Z"/>
        <rect x="14.4928" y="20.2899" width="32.4638" height="5.7971"/>
    </g>
    <path d="M25.5406 51.0354C25.5716 50.8103 25.4192 50.609 25.2101 50.5802C25.0011 50.5513 24.8043 50.6717 24.5647 50.9827L24.2703 51.3353C23.937 51.7318 23.281 52.3294 22.6999 52.7408C22.1349 53.1544 21.6353 53.3313 21.2012 53.2714C20.6705 53.1981 20.3628 52.6969 20.4494 52.0698C20.6224 50.8156 21.8873 48.8927 23.5602 47.3375C24.84 46.1377 26.117 45.3144 26.5833 45.3788C26.7602 45.4032 26.8988 45.5862 26.8699 45.7952C26.7945 46.3419 26.1346 47.0865 25.3173 47.5472C24.8 47.8527 24.6652 47.998 24.6186 48.3357C24.5632 48.7376 24.8265 49.0853 25.2285 49.1408C25.5823 49.1896 25.9854 48.9994 26.5133 48.4988C27.3611 47.6982 27.9622 46.6669 28.0865 45.7664C28.2085 44.8821 27.7417 44.2278 26.8895 44.1102C25.78 43.9571 24.2801 44.7332 22.4242 46.427C20.3648 48.2894 19.0749 50.2743 18.8531 51.8823C18.66 53.2812 19.3791 54.3636 20.6172 54.5344C21.6463 54.6764 22.936 54.117 24.0855 53.0303C24.8396 52.3151 25.4829 51.4535 25.5406 51.0354Z"/>
    <path d="M27.5533 50.7888C27.7197 50.5332 27.7629 50.4573 28.0618 50.0725L28.1394 49.9849C28.9578 49.7537 30.0618 49.2342 30.8193 48.7325C31.8306 48.0528 32.4556 47.205 32.571 46.3689C32.6486 45.8061 32.3503 45.3553 31.8519 45.2865C30.8389 45.1467 29.0711 46.5578 27.285 48.933C26.6396 49.8107 25.6869 51.2523 25.0631 52.3296C24.5712 53.1629 24.3416 53.6392 24.295 53.9768C24.2529 54.2824 24.4769 54.559 24.7985 54.6034C25.0879 54.6434 25.3236 54.4793 25.6541 53.9841L26.0051 53.4591C26.7049 52.425 27.551 51.7553 28.4382 51.5008C27.7545 52.0619 27.1939 52.9185 27.1073 53.5456C27.0252 54.1406 27.425 54.6873 28.0199 54.7694C28.647 54.8559 29.5497 54.4889 30.3981 53.8031C31.0613 53.272 31.4766 52.7558 31.5254 52.402C31.5609 52.1447 31.4245 51.9457 31.2155 51.9168C31.0386 51.8924 30.8989 51.9551 30.6566 52.1674C30.2041 52.5966 29.9069 52.8505 29.7034 53.019C29.4334 53.1948 29.1218 53.3156 28.9288 53.289C28.7841 53.269 28.7031 53.1432 28.7231 52.9985C28.7497 52.8055 29.0303 52.4346 29.4806 52.0215L29.8781 51.634C30.4404 51.1217 30.5635 50.942 30.599 50.6848C30.6523 50.2989 30.405 49.9534 30.0352 49.9024C29.5849 49.8402 28.9135 50.0753 27.6587 50.7378L27.5533 50.7888ZM29.1381 48.566C29.1769 48.5222 29.2135 48.4945 29.2157 48.4784L29.5923 48.0061C29.8318 47.695 30.3048 47.2359 30.5998 46.9981C30.7645 46.8733 30.902 46.8268 30.9985 46.8401C31.0628 46.849 31.1182 46.9222 31.1093 46.9865C31.0805 47.1955 30.7495 47.5759 30.3447 47.8969C29.9604 48.1879 29.5872 48.3986 29.1381 48.566Z"/>
    <path d="M32.8392 52.5505C32.6474 52.7535 32.5586 52.9215 32.5298 53.1305C32.4765 53.5164 32.7926 53.8386 33.2589 53.9029C33.7091 53.965 34.2342 53.8409 34.7976 53.5581C35.3792 53.2615 35.7424 52.8856 35.789 52.5479C35.8201 52.3228 35.6698 52.1055 35.4447 52.0744C35.3161 52.0566 35.2129 52.0916 34.8902 52.2928C34.4805 52.5312 34.1483 52.682 34.0036 52.6621C33.9232 52.651 33.8517 52.5755 33.8606 52.5112C33.8783 52.3826 34.155 52.1586 34.5626 51.9363C34.984 51.7323 35.137 51.5731 35.1725 51.3159C35.208 51.0586 35.0023 50.768 34.745 50.7325C34.5199 50.7015 34.2427 50.8107 33.5878 51.1627C32.8781 51.5564 32.3563 51.894 31.6865 52.4734L31.5562 52.5865C31.727 52.2987 32.0785 51.8885 32.4146 51.5907C32.8443 51.2076 32.9058 51.1178 32.9347 50.9088C32.9702 50.6515 32.7601 50.3931 32.4545 50.3509C32.2134 50.3176 32.0071 50.3875 31.7487 50.5976C31.4559 50.8194 31.0129 51.299 30.6524 51.7736C29.8173 52.8381 28.9889 54.3296 28.9112 54.8924C28.8646 55.2301 29.0747 55.4885 29.4124 55.535C29.7018 55.575 29.8965 55.4708 30.1199 55.1575L30.5758 54.4667C31.0704 53.732 31.9415 53.0002 32.8392 52.5505Z"/>
    <path d="M37.8378 53.6336C37.855 53.3901 37.7325 53.2094 37.5235 53.1805C37.3144 53.1517 37.1747 53.2143 36.761 53.5997C36.5758 53.7544 36.2487 53.9878 36.0336 54.1219C35.7635 54.2977 35.6099 54.342 35.4652 54.3221C35.3044 54.2999 35.2235 54.174 35.2457 54.0132C35.2878 53.7077 35.7259 53.1455 36.4983 52.4164C36.7656 52.142 36.8659 52.0083 36.897 51.7832C36.9436 51.4456 36.7379 51.155 36.4163 51.1106C36.0626 51.0618 35.7033 51.2908 35.1415 51.9179C34.3059 52.8676 33.8345 53.671 33.7391 54.3624C33.6415 55.0699 34.0413 55.6167 34.6844 55.7054C35.2794 55.7875 36.1089 55.476 36.8841 54.8456C37.3643 54.453 37.8206 53.877 37.8378 53.6336ZM39.6596 48.6251C39.7084 48.2714 39.5027 47.9808 39.165 47.9342C38.5861 47.8544 37.852 48.4249 37.7677 49.0359C37.7233 49.3575 37.9634 49.6364 38.301 49.683C38.8799 49.7629 39.5775 49.2201 39.6596 48.6251Z"/>
    <path d="M42.6802 51.549C42.7911 50.745 42.265 50.1644 41.3324 50.0357C40.7053 49.9492 40.0837 50.0601 39.4216 50.3456C38.5489 50.7331 38.1014 51.2448 37.9993 51.9845C37.9283 52.499 38.0264 52.8567 38.4545 53.5548C38.8919 54.3033 38.929 54.3904 38.9002 54.5994C38.8625 54.8728 38.5764 55.0463 38.2387 54.9997C37.8849 54.9509 37.6266 54.6859 37.5673 54.2844C37.5506 54.1674 37.5296 54.0826 37.5318 54.0665L37.6505 53.4438C37.691 53.2692 37.4764 53.043 37.2674 53.0141C36.8171 52.952 36.4085 53.4199 36.3131 54.1113C36.16 55.2208 36.9012 56.1424 38.0429 56.2999C39.1202 56.4486 40.1111 55.7988 40.2376 54.8823C40.2997 54.4321 40.1644 53.9874 39.778 53.3442C39.3893 52.717 39.294 52.4581 39.3384 52.1365C39.4094 51.622 40.1923 51.1729 40.8676 51.2661C41.0767 51.2949 41.2197 51.4457 41.1975 51.6065C41.1753 51.7673 40.9857 51.9542 40.7611 52.0379L40.4334 52.1565C40.225 52.2425 40.0902 52.3877 40.0614 52.5968C40.017 52.9183 40.2571 53.1973 40.5947 53.2439C41.4148 53.357 42.5582 52.4333 42.6802 51.549Z"/>
    <path d="M26.7053 0.209329C26.4075 0.450689 26.214 1.02451 26.2663 1.48712C26.2887 1.66814 26.4597 2.10077 26.6385 2.44309C27.1893 3.48938 27.3828 4.09318 27.4201 4.90836C27.4574 5.68292 27.4277 5.78349 26.7427 7.29278C25.7974 9.36563 25.924 11.5789 27.1222 13.9736C27.4945 14.7083 27.7028 14.8992 28.1419 14.8992C28.4246 14.8992 28.529 14.8388 28.7595 14.5572C29.0127 14.235 29.0349 14.1648 29.0349 13.6719C29.0349 13.2191 28.9976 13.0681 28.7595 12.6256C28.2014 11.5994 27.9333 10.432 28.0599 9.54665C28.0824 9.35538 28.3055 8.77209 28.5512 8.24875C29.1093 7.06167 29.2881 6.42751 29.3401 5.45181C29.422 4.03323 29.0647 2.59414 28.2533 1.03476C27.725 0.0184483 27.2489 -0.233165 26.7053 0.209329Z"/>
    <path d="M31.1042 0.209329C30.9703 0.309895 30.8139 0.541396 30.7468 0.702303C30.5385 1.24576 30.598 1.6078 31.0371 2.45295C31.5357 3.41879 31.7592 4.11329 31.8038 4.84762C31.856 5.5721 31.7665 5.92428 31.2381 7.03091C30.6576 8.26847 30.5237 8.8419 30.5237 10.1702C30.5312 11.0457 30.561 11.3474 30.7247 11.961C30.9627 12.8567 31.4391 13.9534 31.8187 14.4965C32.0716 14.8585 32.1387 14.8992 32.4737 14.8992C32.8906 14.8992 33.166 14.6779 33.3518 14.1948C33.5379 13.7117 33.4857 13.3796 33.0913 12.5345C32.6076 11.498 32.4214 10.8138 32.4214 10.0893C32.4214 9.43544 32.5405 9.03278 33.0466 7.97624C34.0812 5.81306 33.9548 3.63964 32.6446 1.06395C32.109 0.0283075 31.6402 -0.233165 31.1042 0.209329Z"/>
</svg>
