<svg viewBox="0 0 65 64" fill="none"
    xmlns="http://www.w3.org/2000/svg">
    <circle cx="32.5" cy="32" r="32" fill="#383B23"/>
    <path d="M23.59 36.73C23.43 36.69 23.32 36.65 23.27 36.62C23.13 36.54 23.03 36.43 22.98 36.3C22.92 36.17 22.89 35.95 22.88 35.63C22.86 35.19 22.84 34.78 22.83 34.37C22.82 33.97 22.81 33.59 22.81 33.23C22.81 33.04 22.81 32.77 22.82 32.43C22.83 32.09 22.83 31.85 22.83 31.69C22.83 31.22 22.82 30.84 22.8 30.56C22.78 30.28 22.75 30.05 22.71 29.86C22.47 28.81 22.06 28.03 21.47 27.52C20.88 27.01 20.09 26.76 19.1 26.76C18.55 26.76 18.07 26.85 17.64 27.04C17.2 27.23 16.82 27.5 16.5 27.88C16.4 27.99 16.27 28.15 16.12 28.37C15.93 28.62 15.78 28.75 15.69 28.75C15.65 28.75 15.62 28.73 15.6 28.69C15.57 28.66 15.56 28.57 15.56 28.45V27.56C15.56 27.26 15.52 27.05 15.45 26.94C15.37 26.82 15.24 26.77 15.05 26.77C14.52 26.77 13.96 26.91 13.37 27.18C12.79 27.45 12.5 27.71 12.5 27.96C12.5 28.2 12.68 28.35 13.05 28.4C13.42 28.45 13.63 28.53 13.69 28.62C13.78 28.75 13.85 29.11 13.89 29.7C13.93 30.29 13.96 31.12 13.96 32.19C13.96 33.6 13.94 34.62 13.91 35.24C13.88 35.86 13.83 36.24 13.75 36.38C13.67 36.51 13.46 36.63 13.14 36.73C12.82 36.83 12.66 36.97 12.66 37.15C12.66 37.37 12.83 37.53 13.16 37.63C13.49 37.73 14.03 37.78 14.77 37.78C15.5 37.78 16.03 37.73 16.36 37.63C16.69 37.53 16.85 37.37 16.85 37.15C16.85 36.97 16.69 36.83 16.37 36.73C16.05 36.63 15.85 36.51 15.76 36.38C15.69 36.26 15.64 35.93 15.61 35.37C15.58 34.81 15.57 33.76 15.57 32.2V31.43C15.57 30.94 15.6 30.57 15.67 30.32C15.74 30.07 15.85 29.85 16.02 29.65C16.4 29.17 16.81 28.81 17.29 28.56C17.76 28.32 18.26 28.2 18.81 28.2C19.65 28.2 20.26 28.48 20.63 29.04C21 29.6 21.19 30.54 21.19 31.85C21.19 33.75 21.18 34.95 21.15 35.45C21.12 35.96 21.07 36.26 21 36.37C20.92 36.5 20.72 36.62 20.4 36.72C20.08 36.82 19.92 36.96 19.92 37.14C19.92 37.36 20.08 37.52 20.41 37.62C20.74 37.72 21.26 37.77 22 37.77C22.74 37.77 23.27 37.72 23.6 37.62C23.93 37.52 24.09 37.36 24.09 37.14C24.08 36.96 23.92 36.82 23.59 36.73Z" fill="#F4F0D8"/>
    <path d="M53.64 30.96C53.58 31.02 53.48 31.05 53.32 31.05H48.07C47.93 31.05 47.84 31.03 47.78 30.98C47.73 30.94 47.7 30.86 47.7 30.75C47.7 30.5 47.77 30.21 47.92 29.87C48.07 29.53 48.26 29.22 48.51 28.93C48.81 28.57 49.17 28.29 49.56 28.1C49.96 27.91 50.38 27.81 50.82 27.81C51.66 27.81 52.35 28.08 52.9 28.61C53.45 29.15 53.72 29.82 53.72 30.63C53.72 30.79 53.69 30.9 53.64 30.96ZM54.27 27.91C53.49 27.16 52.43 26.79 51.1 26.79C49.56 26.79 48.29 27.33 47.27 28.42C46.25 29.51 45.74 30.89 45.74 32.55C45.74 34.11 46.23 35.41 47.2 36.44C48.17 37.47 49.4 37.98 50.88 37.98C51.66 37.98 52.39 37.83 53.08 37.53C53.65 37.28 54.16 36.93 54.62 36.49C54.65 36.46 54.68 36.42 54.71 36.39C54.84 36.23 54.92 36.07 54.95 35.92C54.97 35.81 54.95 35.71 54.89 35.63C54.83 35.54 54.74 35.49 54.63 35.47C54.43 35.43 54.16 35.55 53.81 35.82C53.69 35.91 53.58 35.99 53.48 36.06C53.19 36.28 52.88 36.45 52.54 36.57C52.15 36.71 51.75 36.78 51.33 36.78C50.26 36.78 49.39 36.37 48.7 35.54C48.01 34.71 47.67 33.65 47.67 32.36C47.67 32.2 47.7 32.09 47.75 32.04C47.8 31.98 47.9 31.96 48.04 31.96H54.59C54.99 31.96 55.24 31.9 55.33 31.77C55.42 31.65 55.47 31.38 55.47 30.96C55.45 29.67 55.05 28.66 54.27 27.91Z" fill="#F4F0D8"/>
    <path d="M35.46 26.77C35.33 26.77 35.17 26.79 35 26.84C34.62 26.95 34.28 27.04 33.92 27.18C33.75 27.26 33.6 27.33 33.49 27.4C32.98 27.69 33.07 28.18 33.15 28.9V28.91C33.16 29.17 33.18 29.48 33.2 29.82C33.25 30.69 33.28 30.93 33.28 31.43V32.02C33.28 33.02 33.26 33.75 33.21 34.21C33.16 34.67 33.09 35.04 32.98 35.34C32.83 35.76 32.56 36.09 32.19 36.34C32 36.46 31.45 36.71 30.55 36.71C29.64 36.71 29.1 36.46 28.91 36.34C28.53 36.1 28.27 35.77 28.12 35.34C28.01 35.04 27.93 34.67 27.89 34.21C27.84 33.75 27.82 33.02 27.82 32.02V31.43C27.82 30.92 27.85 30.24 27.9 29.37C27.95 28.51 27.98 27.89 27.98 27.53C27.98 27.23 27.94 27.03 27.86 26.92C27.78 26.81 27.63 26.76 27.42 26.76C27.27 26.76 27.01 26.8 26.65 26.89C26.29 26.98 25.93 27.09 25.57 27.23C25.3 27.35 25.1 27.46 24.97 27.57C24.84 27.68 24.78 27.8 24.78 27.93C24.79 28.18 24.96 28.33 25.31 28.37C25.66 28.42 25.85 28.45 25.89 28.48C26.01 28.56 26.09 28.77 26.14 29.1C26.19 29.43 26.21 30.1 26.21 31.11V32.9C26.21 34.66 26.52 35.93 27.1 36.75C27.99 38.01 30.29 37.96 30.55 37.96C30.81 37.96 33.11 38.01 34 36.75C34.58 35.93 34.89 34.66 34.89 32.9V31.11C34.89 30.1 34.86 28.88 34.96 28.75C34.98 28.72 35.39 28.29 35.51 28.15C35.62 28.03 35.78 27.87 35.85 27.78C35.99 27.61 36.05 27.47 36.08 27.31C36.1 27.19 36.06 27.01 35.96 26.9C35.88 26.82 35.73 26.77 35.46 26.77Z" fill="#F4F0D8"/>
    <path d="M44.13 35.46C43.93 35.5 43.78 35.67 43.64 35.81C43.36 36.1 43.05 36.35 42.67 36.51C42.4 36.62 42.16 36.68 41.96 36.68C41.54 36.68 41.24 36.53 41.07 36.22C40.9 35.91 40.82 35.32 40.82 34.45V28.21C40.82 28.1 40.84 28.01 40.88 27.96C40.92 27.9 40.98 27.87 41.05 27.87H44.12C44.25 27.87 44.35 27.84 44.41 27.77C44.47 27.7 44.5 27.6 44.5 27.47V27.19C44.5 27.04 44.47 26.93 44.41 26.87C44.35 26.8 44.25 26.77 44.11 26.77H40.81V24.88C40.81 24.78 40.78 24.7 40.72 24.64C40.66 24.58 40.58 24.56 40.47 24.56C40.28 24.56 39.93 24.86 39.41 25.45C39.27 25.61 39.16 25.73 39.08 25.82C39 25.91 38.89 26.03 38.74 26.19C38.22 26.76 37.96 27.15 37.96 27.36V27.65C37.96 27.72 37.99 27.77 38.04 27.81C38.1 27.85 38.17 27.87 38.28 27.87H39.17V28.34V34.49V34.96C39.17 36.06 39.33 36.84 39.66 37.31C39.99 37.77 40.52 38.01 41.28 38.01C41.85 38.01 42.27 37.98 42.86 37.72C43.18 37.57 43.58 37.35 43.88 37.06C44.15 36.81 44.42 36.56 44.59 36.23C44.67 36.08 44.71 35.88 44.64 35.72C44.57 35.52 44.33 35.42 44.13 35.46Z" fill="#F4F0D8"/>
    <path d="M27.91 25.07C28.21 25.07 28.47 24.96 28.69 24.75C28.91 24.53 29.02 24.29 29.02 24.01C29.02 23.72 28.92 23.49 28.71 23.3C28.51 23.1 28.25 23 27.95 23C27.65 23 27.39 23.11 27.18 23.32C26.97 23.53 26.87 23.79 26.87 24.11C26.87 24.38 26.97 24.61 27.18 24.79C27.38 24.97 27.62 25.07 27.91 25.07Z" fill="#F4F0D8"/>
    <path d="M33.12 25.07C33.42 25.07 33.68 24.96 33.9 24.75C34.12 24.53 34.23 24.29 34.23 24.01C34.23 23.72 34.13 23.49 33.92 23.3C33.72 23.1 33.46 23 33.16 23C32.86 23 32.6 23.11 32.39 23.32C32.18 23.53 32.08 23.79 32.08 24.11C32.08 24.38 32.18 24.61 32.39 24.79C32.59 24.97 32.83 25.07 33.12 25.07Z" fill="#F4F0D8"/>
</svg>
