<svg width="64" height="64" viewBox="0 0 64 64" fill="none" xmlns="http://www.w3.org/2000/svg">
<path d="M31.7693 0C15.5221 1.16527e-06 16.5367 7.08264 16.5367 7.08264L16.5548 14.4202H32.0591V16.6233H10.3966C10.3966 16.6233 0 15.438 0 31.9174C-1.1592e-06 48.3967 9.07435 47.8124 9.07435 47.8124H14.49V40.1653C14.49 40.1653 14.1981 31.0434 23.4194 31.0434C32.6408 31.0434 38.7969 31.0434 38.7969 31.0434C38.7969 31.0434 47.4366 31.1838 47.4366 22.6499C47.4366 14.1159 47.4366 8.53922 47.4366 8.53922C47.4366 8.53922 48.7483 0 31.7693 0ZM23.2202 4.93418C24.7628 4.93418 26.0095 6.18746 26.0095 7.7381C26.0095 9.28874 24.7628 10.542 23.2202 10.542C21.6776 10.542 20.4309 9.28874 20.4309 7.7381C20.4309 6.18746 21.6776 4.93418 23.2202 4.93418Z" fill="url(#paint0_linear_756_303)"/>
<path d="M32.2307 64C48.4779 64 47.4633 56.9173 47.4633 56.9173L47.4452 49.5798H31.9409V47.3767H53.6035C53.6035 47.3767 64 48.562 64 32.0826C64 15.6032 54.9257 16.1876 54.9257 16.1876H49.51V23.8347C49.51 23.8347 49.802 32.9565 40.5806 32.9565C31.3592 32.9565 25.2031 32.9565 25.2031 32.9565C25.2031 32.9565 16.5634 32.8161 16.5634 41.3501C16.5634 49.8841 16.5634 55.4608 16.5634 55.4608C16.5634 55.4608 15.2517 64 32.2307 64ZM40.7798 59.0658C39.2373 59.0658 37.9905 57.8125 37.9905 56.2619C37.9905 54.7112 39.2373 53.458 40.7798 53.458C42.3224 53.458 43.5691 54.7112 43.5691 56.2619C43.5692 57.8125 42.3224 59.0658 40.7798 59.0658Z" fill="url(#paint1_linear_756_303)"/>
<defs>
<linearGradient id="paint0_linear_756_303" x1="6.15052" y1="5.59417" x2="37.9624" y2="37.3463" gradientUnits="userSpaceOnUse">
<stop stop-color="#387EB8"/>
<stop offset="1" stop-color="#366994"/>
</linearGradient>
<linearGradient id="paint1_linear_756_303" x1="25.6179" y1="25.8991" x2="59.7758" y2="58.4536" gradientUnits="userSpaceOnUse">
<stop stop-color="#FFE052"/>
<stop offset="1" stop-color="#FFC331"/>
</linearGradient>
</defs>
</svg>
