<svg viewBox="0 0 25 24" fill="none"
    xmlns="http://www.w3.org/2000/svg">
    <path d="M11.5746 16.1246C9.05971 16.1246 7.02564 14.0721 7.04413 11.5572C7.04413 9.04238 9.09669 7.00831 11.6115 7.0268C14.1264 7.0268 16.142 9.06087 16.142 11.5757C16.142 14.0906 14.1079 16.1246 11.5931 16.1431L11.5746 16.1246Z" fill="#5F5F61"/>
    <path d="M11.5746 18.6765C7.65438 18.6765 4.47383 15.4959 4.49232 11.5572C4.49232 7.63701 7.67287 4.45646 11.6116 4.47496C15.5318 4.47496 18.7123 7.6555 18.6938 11.5757C18.6753 15.4959 15.4948 18.6765 11.5746 18.6765ZM24.6666 21.2653C24.2413 20.9139 21.9299 18.9169 21.2087 18.2881C21.0977 18.1957 21.0977 18.1217 21.1902 18.0108C22.7435 15.6623 23.4092 13.092 23.0948 10.2813C22.7435 7.13774 21.3011 4.56741 18.8418 2.57033C16.7337 0.869103 14.3113 0.0369831 11.5561 0C11.4267 0 11.2417 0.0184916 11.0568 0.0184916C9.98431 0.0554747 8.9118 0.258882 7.89477 0.610221C5.69427 1.36838 3.84511 2.64429 2.43976 4.49345C0.165295 7.50757 -0.518892 10.8545 0.387194 14.4974C1.0344 17.0677 2.47674 19.1572 4.58478 20.766C8.65292 23.8726 14.2928 23.9096 18.4165 20.877C18.4904 20.8215 18.5644 20.766 18.6568 20.8585C19.3225 21.4317 21.7634 23.4658 22.3182 23.9281C22.3921 23.9835 22.4476 24.0575 22.5401 23.9281L24.6481 21.4317C24.6851 21.3947 24.7036 21.3393 24.6666 21.3023C24.6851 21.2838 24.6666 21.2653 24.6666 21.2653Z" fill="#60A729"/>
</svg>
