<svg width="59" height="24" viewBox="0 0 59 24" fill="none" xmlns="http://www.w3.org/2000/svg">
<path d="M20.8554 21.4518L15.0723 3.50602C14.259 0.759036 12.8675 0 10.753 0H0C0.849397 0.343373 1.40964 2.53012 1.40964 2.53012L6.59638 20.5482C7.19277 22.8072 9.07229 24 11.1867 24H22.5723C21.741 23.8554 20.8554 21.4518 20.8554 21.4518Z" fill="#D5002B"/>
<path d="M38.0061 21.4518L43.7892 3.50602C44.6024 0.759036 45.994 0 48.1085 0H58.8615C58.0121 0.343373 57.4518 2.53012 57.4518 2.53012L52.2651 20.5482C51.6687 22.8072 49.7892 24 47.6747 24H36.2892C37.1205 23.8554 38.0061 21.4518 38.0061 21.4518Z" fill="#D5002B"/>
<path d="M35.7831 0.144577H23.1325V24H35.7831V0.144577Z" fill="#D5002B"/>
</svg>
