<svg viewBox="0 0 69 69" fill="none"
    xmlns="http://www.w3.org/2000/svg">
    <path d="M60.0769 56.9187C65.4356 50.8795 68.7 42.9404 68.7 34.25C68.7 25.2083 65.1668 16.9814 59.4164 10.8596V10.8584C59.4117 10.8514 59.4047 10.849 59.4011 10.8431C53.4114 4.476 45.0194 0.400304 35.6852 0.0807109L35.684 0.0795316L35.0177 0.0618419C34.8455 0.0559454 34.6733 0.0500488 34.5 0.0500488C34.3266 0.0500488 34.1544 0.0559454 33.9823 0.0618419L33.3183 0.0795316L33.3171 0.0807109C23.9829 0.400304 15.5909 4.476 9.60121 10.8431C9.59649 10.849 9.58941 10.8514 9.58588 10.8584C9.58588 10.8584 9.58588 10.8596 9.5847 10.8608C3.8332 16.9814 0.299988 25.2083 0.299988 34.25C0.299988 42.9404 3.56432 50.8795 8.9231 56.9187C8.93018 56.9294 8.93018 56.9412 8.93843 56.9518C8.95966 56.9812 8.99032 56.9954 9.01273 57.0225C15.0343 63.754 23.6739 68.0903 33.316 68.4206L33.3171 68.4217L33.9811 68.4394C34.1544 68.4441 34.3266 68.45 34.5 68.45C34.6733 68.45 34.8455 68.4441 35.0177 68.4382L35.6817 68.4206L35.6828 68.4194C45.3355 68.088 53.9845 63.7434 60.0061 56.9978C60.0214 56.9777 60.0462 56.9718 60.0604 56.9506C60.0698 56.9412 60.0698 56.9294 60.0769 56.9187ZM2.68809 35.4294H16.8434C16.9766 40.4285 17.9531 45.286 19.6914 49.837C16.3374 51.0505 13.1309 52.6779 10.126 54.7087C5.70712 49.4525 2.95697 42.7529 2.68809 35.4294ZM10.7699 13.0496C13.704 14.9577 16.828 16.4861 20.0865 17.6277C18.0911 22.4711 16.9872 27.6931 16.8434 33.0707H2.68809C2.96995 25.397 5.97483 18.4095 10.7699 13.0496ZM66.3119 33.0707H52.1566C52.0127 27.6931 50.9089 22.4711 48.9135 17.6277C52.1719 16.4861 55.2959 14.9577 58.2301 13.0496C63.0251 18.4095 66.03 25.397 66.3119 33.0707ZM33.3207 17.6961C29.9113 17.5994 26.5644 17.0911 23.3307 16.183C25.7212 11.2794 29.0964 6.85349 33.3207 3.16815V17.6961ZM33.3207 20.0547V33.0707H19.202C19.347 27.9431 20.4226 22.9699 22.346 18.3588C25.891 19.386 29.5716 19.9544 33.3207 20.0547ZM35.6793 20.0547C39.4283 19.9544 43.1089 19.3872 46.6551 18.3588C48.5786 22.9699 49.6541 27.9431 49.7992 33.0707H35.6793V20.0547ZM35.6793 17.6961V3.16815C39.9036 6.85349 43.2788 11.2794 45.6692 16.183C42.4356 17.0911 39.0887 17.5994 35.6793 17.6961ZM47.9547 15.466C45.6893 10.7193 42.5452 6.39474 38.6523 2.68817C45.5584 3.59152 51.7722 6.71433 56.5578 11.3184C53.8407 13.0425 50.9584 14.4294 47.9547 15.466ZM21.0452 15.466C18.0415 14.4294 15.1593 13.0425 12.4433 11.3184C17.2278 6.71433 23.4428 3.59152 30.3488 2.68817C26.4547 6.39474 23.3107 10.7193 21.0452 15.466ZM19.202 35.4294H33.3207V47.2673C29.4207 47.371 25.5997 47.9796 21.9274 49.0846C20.2681 44.7742 19.3352 40.169 19.202 35.4294ZM33.3207 49.6259V65.3319C28.7992 61.3872 25.2542 56.5944 22.8437 51.2781C26.2248 50.2816 29.7367 49.7273 33.3207 49.6259ZM35.6793 65.3319V49.6259C39.2632 49.7261 42.7752 50.2816 46.1563 51.2769C43.7458 56.5944 40.2008 61.3872 35.6793 65.3319ZM35.6793 47.2673V35.4294H49.798C49.6647 40.169 48.7319 44.7742 47.0714 49.0858C43.4002 47.9796 39.5793 47.371 35.6793 47.2673ZM52.1566 35.4294H66.3119C66.043 42.7529 63.294 49.4525 58.874 54.7087C55.8691 52.6779 52.6625 51.0505 49.3086 49.837C51.0481 45.286 52.0234 40.4285 52.1566 35.4294ZM11.7287 56.4753C14.5189 54.6214 17.4896 53.1308 20.5936 52.0164C22.8873 57.1581 26.18 61.8435 30.3476 65.8119C23.0937 64.8626 16.6016 61.4662 11.7287 56.4753ZM38.6523 65.8119C42.82 61.8447 46.1127 57.1593 48.4064 52.0164C51.5104 53.1308 54.4799 54.6214 57.2713 56.4753C52.3984 61.4662 45.9063 64.8626 38.6523 65.8119Z" fill="white"/>
</svg>
